<svg width="58" height="66" viewBox="0 0 58 66" fill="none" xmlns="http://www.w3.org/2000/svg">
<path d="M36.0745 9.24471H35.7893C32.983 8.51271 30.3774 7.15859 28.1655 5.28271C28.0506 5.18696 27.9566 5.06871 27.8892 4.93526C27.8218 4.8018 27.7824 4.65594 27.7734 4.50669C27.7645 4.35743 27.7862 4.20794 27.8373 4.06739C27.8883 3.92684 27.9675 3.79823 28.0701 3.68946C28.1727 3.5807 28.2965 3.49409 28.4339 3.43497C28.5712 3.37585 28.7192 3.34548 28.8687 3.3457C29.0182 3.34593 29.1661 3.37677 29.3033 3.43631C29.4404 3.49585 29.564 3.58283 29.6662 3.6919C31.618 5.29984 33.8971 6.46247 36.3446 7.09863C36.5952 7.17254 36.8112 7.3336 36.9535 7.55275C37.0958 7.7719 37.1551 8.0347 37.1207 8.29373C37.0863 8.55276 36.9604 8.79095 36.7658 8.96533C36.5712 9.13972 36.3207 9.23881 36.0595 9.24471H36.0745Z" fill="#38BCEA"/>
<path d="M52.4183 24.9876H52.3432C52.0551 24.9646 51.7877 24.8286 51.5994 24.6094C51.411 24.3901 51.317 24.1053 51.3377 23.817C51.5928 20.3053 51.5928 18.0391 51.5928 18.0091C51.5928 9.3197 45.3797 2.23612 37.7558 2.23612C34.7742 2.23953 31.8909 3.30345 29.6217 5.23764C29.4218 5.39842 29.1729 5.48607 28.9164 5.48607C28.6598 5.48607 28.411 5.39842 28.211 5.23764C25.9418 3.30345 23.0586 2.23953 20.0769 2.23612C12.4531 2.23612 6.23994 9.3197 6.23994 18.0091C6.23994 18.0091 6.23995 20.1702 6.48007 23.5319C6.50494 23.6824 6.49806 23.8366 6.4599 23.9843C6.42173 24.1321 6.35312 24.2703 6.25845 24.39C6.16378 24.5097 6.04514 24.6083 5.91014 24.6794C5.77515 24.7506 5.62677 24.7928 5.47452 24.8033C5.32227 24.8138 5.1695 24.7924 5.02601 24.7404C4.88252 24.6884 4.75147 24.6071 4.64127 24.5015C4.53106 24.3959 4.44414 24.2685 4.38605 24.1273C4.32796 23.9862 4.3 23.8345 4.30395 23.6819C4.04883 20.2452 4.04883 18.0991 4.04883 18.0091C4.04883 8.10409 11.2375 0 20.0769 0C23.2721 0.00856165 26.3766 1.06274 28.9164 3.00151C31.4561 1.06274 34.5607 0.00856165 37.7558 0C46.5953 0 53.7839 8.04406 53.7839 18.0091C53.7839 18.0991 53.7839 20.3653 53.5138 24.0121C53.481 24.2801 53.3516 24.5269 53.15 24.7065C52.9483 24.886 52.6882 24.986 52.4183 24.9876Z" fill="#38BCEA"/>
<path d="M40.1421 65.5081C39.7365 65.5048 39.333 65.4493 38.9415 65.343C37.8766 65.0088 36.9506 64.3347 36.3055 63.4239C35.6603 62.5131 35.3316 61.4159 35.3697 60.3004V53.592C35.3697 49.48 32.4732 46.0883 28.9164 46.0883C25.3596 46.0883 22.4632 49.4199 22.4632 53.592V60.3004C22.4997 61.4135 22.1722 62.5081 21.5303 63.4181C20.8884 64.3281 19.9672 65.0039 18.9064 65.343C17.9379 65.6096 16.9081 65.5446 15.9807 65.1585C15.0534 64.7723 14.2818 64.0871 13.7888 63.2119C8.47613 54.6126 6.08992 43.3419 5.03939 35.4179C5.01543 35.2653 5.02591 35.1093 5.07006 34.9613C5.1142 34.8133 5.19089 34.677 5.29452 34.5624C5.39735 34.4446 5.52422 34.3502 5.66659 34.2855C5.80897 34.2207 5.96355 34.1873 6.11994 34.1873H51.7129C51.8693 34.1873 52.0239 34.2207 52.1663 34.2855C52.3087 34.3502 52.4355 34.4446 52.5383 34.5624C52.6638 34.6793 52.7583 34.8255 52.8133 34.9879C52.8683 35.1503 52.8821 35.3239 52.8535 35.4929C51.803 43.4319 49.4168 54.6876 44.1041 63.2869C43.6941 63.9699 43.1129 64.5341 42.418 64.9236C41.7232 65.3131 40.9387 65.5146 40.1421 65.5081ZM28.9164 43.9572C33.6889 43.9572 37.5608 48.2794 37.5608 53.592V60.3004C37.498 60.9498 37.6586 61.6011 38.0161 62.1468C38.3735 62.6926 38.9064 63.1 39.5268 63.3019C40.0349 63.4438 40.5764 63.4064 41.0602 63.1959C41.544 62.9855 41.9405 62.6148 42.1831 62.1464C47.0306 54.2974 49.3417 44.1373 50.4523 36.4384H7.38057C8.49113 44.0622 10.8023 54.2974 15.6498 62.1464C15.8924 62.6148 16.2889 62.9855 16.7727 63.1959C17.2565 63.4064 17.7979 63.4438 18.3061 63.3019C18.9264 63.1 19.4593 62.6926 19.8168 62.1468C20.1743 61.6011 20.3348 60.9498 20.2721 60.3004V53.592C20.2721 48.3094 24.144 43.9872 28.9164 43.9872V43.9572Z" fill="#38BCEA"/>
<path d="M41.1021 30.6605C40.8943 30.6602 40.6907 30.6008 40.5153 30.4892C40.34 30.3776 40.1999 30.2184 40.1116 30.0302C39.114 27.9034 37.5312 26.1047 35.5485 24.8448C33.5657 23.5849 31.2652 22.9157 28.916 22.9157C26.5668 22.9157 24.2663 23.5849 22.2836 24.8448C20.3008 26.1047 18.718 27.9034 17.7203 30.0302C17.6162 30.2475 17.4443 30.425 17.2304 30.536C17.0165 30.647 16.7724 30.6854 16.5348 30.6455C11.9574 29.8201 4.28857 27.824 4.28857 23.6219C4.28857 18.3393 16.6848 15.5779 28.916 15.5779C41.1472 15.5779 53.5434 18.3393 53.5434 23.6219C53.5434 27.824 45.8746 29.8201 41.2973 30.6455L41.1021 30.6605ZM28.916 20.7255C31.5333 20.7329 34.1006 21.4428 36.3498 22.7813C38.599 24.1197 40.4476 26.0375 41.7025 28.3343C48.3508 27.0437 51.3523 24.9876 51.3523 23.6219C51.3523 21.1757 42.813 17.769 28.916 17.769C15.019 17.769 6.40465 21.1757 6.40465 23.6219C6.40465 25.0026 9.40615 27.0437 16.0545 28.3343C17.3155 26.0263 19.1759 24.1013 21.4394 22.7621C23.703 21.423 26.286 20.7194 28.916 20.7255Z" fill="#38BCEA"/>
<path d="M42.3476 36.3934H15.334C15.0474 36.3934 14.7726 36.2795 14.5699 36.0769C14.3673 35.8742 14.2534 35.5994 14.2534 35.3128C14.2534 33.3992 14.6304 31.5042 15.3627 29.7362C16.095 27.9682 17.1684 26.3618 18.5216 25.0086C19.8747 23.6555 21.4812 22.5821 23.2492 21.8497C25.0172 21.1174 26.9121 20.7405 28.8258 20.7405C30.7394 20.7405 32.6344 21.1174 34.4024 21.8497C36.1704 22.5821 37.7768 23.6555 39.13 25.0086C40.4831 26.3618 41.5566 27.9682 42.2889 29.7362C43.0212 31.5042 43.3981 33.3992 43.3981 35.3128C43.3982 35.5943 43.2885 35.8647 43.0923 36.0665C42.8961 36.2683 42.6289 36.3856 42.3476 36.3934ZM16.5046 34.2173H41.192C40.9078 31.14 39.4845 28.2799 37.201 26.1976C34.9175 24.1153 31.9386 22.961 28.8483 22.961C25.7579 22.961 22.779 24.1153 20.4956 26.1976C18.2121 28.2799 16.7887 31.14 16.5046 34.2173Z" fill="#38BCEA"/>
<path d="M53.138 30.6604C52.9637 30.6582 52.7921 30.6165 52.6362 30.5385C52.4802 30.4606 52.344 30.3483 52.2376 30.2102C52.0773 29.9758 52.0143 29.6883 52.0619 29.4083C52.1095 29.1283 52.2639 28.8778 52.4927 28.7095L56.1095 26.1131C56.3449 25.9734 56.6242 25.9269 56.8922 25.9828C57.1602 26.0386 57.3976 26.1928 57.5576 26.4149C57.7176 26.6371 57.7886 26.9111 57.7567 27.183C57.7248 27.4549 57.5923 27.705 57.3852 27.884L53.7683 30.4804C53.5807 30.6016 53.3613 30.6643 53.138 30.6604Z" fill="#38BCEA"/>
<path d="M56.74 34.6224C56.5265 34.623 56.3177 34.5603 56.1398 34.4423L54.7591 33.5268C54.541 33.3565 54.3955 33.11 54.3517 32.8368C54.3079 32.5636 54.3691 32.2839 54.523 32.054C54.677 31.8241 54.9122 31.6609 55.1814 31.5972C55.4507 31.5336 55.7341 31.5742 55.9747 31.7109L57.3404 32.6264C57.5411 32.7521 57.695 32.9402 57.7783 33.1619C57.8616 33.3836 57.8698 33.6266 57.8016 33.8534C57.7334 34.0802 57.5926 34.2783 57.4008 34.4172C57.209 34.5562 56.9768 34.6282 56.74 34.6224Z" fill="#38BCEA"/>
<path d="M4.69406 30.6604C4.4676 30.6554 4.24792 30.5822 4.06375 30.4503L0.446915 27.854C0.239811 27.675 0.107258 27.4249 0.075344 27.153C0.0434299 26.881 0.114464 26.607 0.27448 26.3849C0.434496 26.1628 0.671887 26.0086 0.939901 25.9527C1.20791 25.8969 1.48711 25.9434 1.72254 26.0831L5.33938 28.6794C5.56812 28.8477 5.72259 29.0983 5.77019 29.3783C5.81778 29.6582 5.75478 29.9457 5.5945 30.1802C5.49119 30.3238 5.35629 30.4418 5.20017 30.5251C5.04405 30.6084 4.8709 30.6547 4.69406 30.6604Z" fill="#38BCEA"/>
<path d="M1.09216 34.6225C0.911595 34.6253 0.733201 34.5829 0.573279 34.499C0.413357 34.4151 0.277008 34.2924 0.176702 34.1423C0.0209678 33.9024 -0.0348016 33.6112 0.021281 33.3308C0.0773636 33.0504 0.240871 32.803 0.476871 32.6415L1.85757 31.726C2.09813 31.5893 2.3815 31.5487 2.65077 31.6124C2.92004 31.676 3.15526 31.8392 3.30918 32.0691C3.4631 32.2991 3.52432 32.5787 3.48054 32.8519C3.43676 33.1251 3.29123 33.3716 3.07317 33.542L1.69248 34.4574C1.51291 34.5701 1.30413 34.6276 1.09216 34.6225Z" fill="#38BCEA"/>
</svg>
