<svg width="79" height="47" viewBox="0 0 79 47" fill="none" xmlns="http://www.w3.org/2000/svg">
<path d="M33.1334 21.3547C28.9754 21.3547 25.5703 17.4192 25.5703 12.5767V3.01158C25.5703 2.21286 25.8876 1.44686 26.4523 0.882085C27.0171 0.317307 27.7831 0 28.5818 0H37.7021C38.5008 0 39.2668 0.317307 39.8316 0.882085C40.3964 1.44686 40.7136 2.21286 40.7136 3.01158V12.5767C40.7136 17.4192 37.3085 21.3547 33.1334 21.3547ZM28.5818 2.53247C28.5138 2.53008 28.446 2.54172 28.3826 2.56667C28.3193 2.59162 28.2617 2.62933 28.2135 2.67748C28.1654 2.72563 28.1277 2.7832 28.1027 2.84657C28.0778 2.90993 28.0661 2.97773 28.0685 3.04578V12.6109C28.0685 16.0331 30.3443 18.8907 33.2019 18.8907C36.0594 18.8907 38.3352 16.0845 38.3352 12.6109V3.01158C38.3376 2.94352 38.326 2.87567 38.301 2.81231C38.2761 2.74895 38.2383 2.69143 38.1901 2.64328C38.142 2.59512 38.0845 2.55737 38.0211 2.53242C37.9578 2.50746 37.8899 2.49582 37.8218 2.49821L28.5818 2.53247Z" fill="#38BCEA"/>
<path d="M45.778 21.3547C41.6029 21.3547 38.2148 17.4192 38.2148 12.5767V3.01158C38.2148 2.21582 38.5298 1.45238 39.0909 0.88809C39.652 0.323802 40.4135 0.00452136 41.2093 0H50.3466C51.1424 0.00452136 51.904 0.323802 52.4651 0.88809C53.0262 1.45238 53.3411 2.21582 53.3411 3.01158V12.5767C53.3411 17.4192 49.9531 21.3547 45.778 21.3547ZM41.2093 2.53247C41.1427 2.53243 41.0767 2.54579 41.0154 2.57179C40.954 2.59779 40.8985 2.63589 40.8522 2.6838C40.8059 2.73171 40.7697 2.78845 40.7458 2.85064C40.7219 2.91283 40.7108 2.97919 40.7131 3.04578V12.6109C40.7131 16.0331 42.9888 18.8907 45.8464 18.8907C48.704 18.8907 50.9797 16.0845 50.9797 12.6109V3.01158C50.982 2.94499 50.9709 2.87858 50.947 2.81638C50.9231 2.75419 50.8869 2.69745 50.8406 2.64954C50.7943 2.60164 50.7388 2.56359 50.6775 2.53759C50.6162 2.51158 50.5502 2.49817 50.4836 2.49821L41.2093 2.53247Z" fill="#38BCEA"/>
<path d="M57.7561 21.8168C53.9574 21.8168 50.9116 18.2234 50.9116 13.8259V5.27031C50.9161 4.52448 51.2156 3.81078 51.7446 3.285C52.2736 2.75921 52.9891 2.4641 53.7349 2.46411H61.9312C62.677 2.4641 63.3925 2.75921 63.9215 3.285C64.4505 3.81078 64.75 4.52448 64.7545 5.27031V13.8259C64.6861 18.2234 61.5719 21.8168 57.7561 21.8168ZM53.6665 4.89386C53.5816 4.89801 53.5013 4.93361 53.4412 4.99371C53.3811 5.0538 53.3455 5.1341 53.3414 5.21898V13.7746C53.3414 16.8032 55.3263 19.2673 57.7561 19.2673C60.1859 19.2673 62.1879 16.8032 62.1879 13.7746V5.21898C62.1837 5.1341 62.1481 5.0538 62.088 4.99371C62.0279 4.93361 61.9476 4.89801 61.8627 4.89386H53.6665Z" fill="#38BCEA"/>
<path d="M21.1555 21.8168C17.3397 21.8168 14.311 18.2234 14.311 13.8259V5.27031C14.3156 4.52448 14.615 3.81078 15.144 3.285C15.673 2.75921 16.3885 2.4641 17.1344 2.46411H25.3135C26.0593 2.4641 26.7749 2.75921 27.3039 3.285C27.8329 3.81078 28.1324 4.52448 28.1369 5.27031V13.8259C28.0684 18.2234 24.9713 21.8168 21.1555 21.8168ZM17.066 4.89386C16.9797 4.89386 16.897 4.92814 16.836 4.98911C16.7751 5.05008 16.7408 5.13276 16.7408 5.21898V13.7746C16.7408 16.8032 18.7257 19.2673 21.1555 19.2673C23.5853 19.2673 25.5702 16.8032 25.5702 13.7746V5.21898C25.5702 5.13276 25.5359 5.05008 25.475 4.98911C25.414 4.92814 25.3313 4.89386 25.2451 4.89386H17.066Z" fill="#38BCEA"/>
<path d="M37.7021 46.3542H28.5818C27.7831 46.3542 27.0171 46.0369 26.4523 45.4722C25.8876 44.9074 25.5703 44.1414 25.5703 43.3427V33.7775C25.5703 28.9351 28.9925 24.9995 33.1334 24.9995C37.2743 24.9995 40.7136 28.9351 40.7136 33.7775V43.3427C40.7136 43.7381 40.6357 44.1298 40.4844 44.4951C40.333 44.8605 40.1113 45.1925 39.8316 45.4722C39.552 45.7518 39.22 45.9737 38.8546 46.125C38.4892 46.2763 38.0976 46.3542 37.7021 46.3542ZM33.1334 27.532C30.3443 27.532 28.0001 30.3382 28.0001 33.8118V43.3769C27.9977 43.445 28.0093 43.5128 28.0343 43.5761C28.0592 43.6395 28.097 43.6971 28.1451 43.7452C28.1933 43.7934 28.2508 43.8311 28.3142 43.856C28.3775 43.881 28.4454 43.8926 28.5134 43.8902H37.6336C37.7017 43.8926 37.7695 43.881 37.8329 43.856C37.8962 43.8311 37.9538 43.7934 38.002 43.7452C38.0501 43.6971 38.0878 43.6395 38.1128 43.5761C38.1377 43.5128 38.1494 43.445 38.147 43.3769V33.8118C38.2154 30.304 35.9396 27.4978 33.1334 27.4978V27.532Z" fill="#38BCEA"/>
<path d="M50.3466 46.3542H41.2093C40.4135 46.3497 39.652 46.0304 39.0909 45.4662C38.5298 44.9019 38.2148 44.1384 38.2148 43.3427V33.7775C38.2148 28.9351 41.6371 24.9995 45.778 24.9995C49.9189 24.9995 53.3411 28.9351 53.3411 33.7775V43.3427C53.3411 44.1384 53.0262 44.9019 52.4651 45.4662C51.904 46.0304 51.1424 46.3497 50.3466 46.3542ZM45.778 27.532C42.9889 27.532 40.6446 30.3382 40.6446 33.8118V43.3769C40.6424 43.4435 40.6535 43.5099 40.6774 43.5721C40.7013 43.6343 40.7375 43.691 40.7838 43.7389C40.8301 43.7868 40.8856 43.8249 40.9469 43.8509C41.0083 43.8769 41.0742 43.8903 41.1408 43.8902H50.2782C50.3449 43.8903 50.4108 43.8769 50.4721 43.8509C50.5335 43.8249 50.589 43.7868 50.6353 43.7389C50.6816 43.691 50.7178 43.6343 50.7417 43.5721C50.7656 43.5099 50.7767 43.4435 50.7744 43.3769V33.8118C50.8429 30.304 48.5671 27.4978 45.778 27.4978V27.532Z" fill="#38BCEA"/>
<path d="M61.8624 43.9416H53.6661C52.9173 43.9416 52.1992 43.6441 51.6697 43.1147C51.1402 42.5852 50.8428 41.8671 50.8428 41.1183V32.5627C50.8428 28.1651 53.957 24.5718 57.6872 24.5718C61.4175 24.5718 64.6172 28.1651 64.6172 32.5627V41.1183C64.6174 41.8554 64.3294 42.5633 63.8147 43.0909C63.2999 43.6184 62.5992 43.9237 61.8624 43.9416ZM57.7557 27.0358C55.3259 27.0358 53.341 29.4998 53.341 32.5285V41.0841C53.3409 41.1719 53.3746 41.2565 53.4351 41.3202C53.4956 41.3839 53.5783 41.4219 53.6661 41.4263H61.8624C61.9501 41.4219 62.0328 41.3839 62.0934 41.3202C62.1539 41.2565 62.1876 41.1719 62.1875 41.0841V32.5285C62.1875 29.4998 60.2026 27.0358 57.7557 27.0358Z" fill="#38BCEA"/>
<path d="M25.2447 43.9416H17.0656C16.3168 43.9416 15.5986 43.6441 15.0691 43.1147C14.5396 42.5852 14.2422 41.8671 14.2422 41.1183V32.5627C14.2422 28.1651 17.3393 24.5718 21.0866 24.5718C24.834 24.5718 27.9311 28.1651 27.9311 32.5627V41.1183C27.932 41.8439 27.6534 42.5421 27.1531 43.0678C26.6529 43.5935 25.9695 43.9064 25.2447 43.9416ZM21.1551 27.0358C18.7253 27.0358 16.7405 29.4998 16.7405 32.5285V41.0841C16.7381 41.1282 16.7448 41.1723 16.7601 41.2137C16.7754 41.2552 16.799 41.293 16.8294 41.3251C16.8598 41.3571 16.8965 41.3826 16.9371 41.4C16.9777 41.4174 17.0214 41.4263 17.0656 41.4263H25.2447C25.2889 41.4263 25.3326 41.4174 25.3732 41.4C25.4138 41.3826 25.4504 41.3571 25.4808 41.3251C25.5113 41.293 25.5348 41.2552 25.5501 41.2137C25.5654 41.1723 25.5721 41.1282 25.5698 41.0841V32.5285C25.5698 29.4998 23.5849 27.0358 21.1551 27.0358Z" fill="#38BCEA"/>
<path d="M63.4368 41.7854C63.1336 41.7776 62.8435 41.6597 62.6208 41.4538C62.3981 41.2478 62.2579 40.9678 62.2264 40.6661C62.195 40.3644 62.2745 40.0615 62.45 39.814C62.6255 39.5666 62.885 39.3915 63.1802 39.3214C66.9177 38.5592 70.2771 36.5291 72.6898 33.5747C75.1026 30.6203 76.4205 26.923 76.4205 23.1086C76.4205 19.2942 75.1026 15.5968 72.6898 12.6424C70.2771 9.68801 66.9177 7.65793 63.1802 6.89577C62.8653 6.82038 62.5921 6.62572 62.418 6.35279C62.2439 6.07987 62.1825 5.75002 62.2469 5.43275C62.3112 5.11547 62.4962 4.83555 62.7629 4.65202C63.0296 4.46848 63.3571 4.39566 63.6764 4.44889C67.9772 5.32704 71.8426 7.66386 74.6187 11.0641C77.3948 14.4642 78.9111 18.7191 78.9111 23.1086C78.9111 27.4981 77.3948 31.7529 74.6187 35.1531C71.8426 38.5533 67.9772 40.8901 63.6764 41.7683L63.4368 41.7854Z" fill="#38BCEA"/>
<path d="M63.4367 35.3345C63.236 35.3325 63.0386 35.2835 62.8603 35.1913C62.682 35.0992 62.5278 34.9666 62.41 34.804C62.2229 34.5381 62.1485 34.2091 62.203 33.8886C62.2575 33.5681 62.4364 33.282 62.7009 33.0929C64.8113 31.5748 66.3915 29.432 67.2183 26.9671C66.2298 25.9325 65.6782 24.5566 65.6782 23.1257C65.6782 21.6947 66.2298 20.3189 67.2183 19.2842C66.3915 16.8194 64.8113 14.6766 62.7009 13.1584C62.4364 12.9693 62.2575 12.6833 62.203 12.3628C62.1485 12.0423 62.2229 11.7132 62.41 11.4473C62.6019 11.1865 62.8876 11.0104 63.2068 10.9562C63.526 10.9019 63.8538 10.9737 64.1211 11.1564C66.9328 13.171 68.9491 16.1076 69.8191 19.4553C69.8857 19.7182 69.865 19.9956 69.7601 20.2457C69.6551 20.4957 69.4716 20.7048 69.2374 20.8413C68.8943 21.1188 68.6176 21.4695 68.4276 21.8677C68.2375 22.2659 68.1389 22.7016 68.1389 23.1428C68.1389 23.584 68.2375 24.0197 68.4276 24.4179C68.6176 24.8161 68.8943 25.1667 69.2374 25.4442C69.4716 25.5808 69.6551 25.7899 69.7601 26.0399C69.865 26.29 69.8857 26.5674 69.8191 26.8302C68.9688 30.1917 66.9641 33.1474 64.1553 35.1805C63.9359 35.3008 63.6861 35.3543 63.4367 35.3345Z" fill="#38BCEA"/>
<path d="M69.8535 28.0794C68.8329 28.2549 67.7832 28.1123 66.8464 27.6709C65.9097 27.2295 65.1313 26.5107 64.6169 25.612C64.1025 24.7132 63.8771 23.678 63.971 22.6468C64.0649 21.6155 64.4737 20.6381 65.142 19.847C65.8103 19.056 66.7057 18.4897 67.7068 18.2248C68.7079 17.9599 69.7662 18.0094 70.7382 18.3664C71.7103 18.7234 72.549 19.3707 73.1407 20.2206C73.7323 21.0704 74.0483 22.0817 74.0457 23.1172C74.1362 24.3286 73.7477 25.5271 72.9637 26.4551C72.1798 27.383 71.063 27.9663 69.8535 28.0794ZM69.8535 20.6361C68.9466 20.6361 68.1424 21.7654 68.1424 23.1172C68.1424 24.469 68.9124 25.5812 69.8535 25.5812C70.7946 25.5812 71.5646 24.4519 71.5646 23.1172C71.5646 21.7825 70.7775 20.6361 69.8535 20.6361Z" fill="#38BCEA"/>
<path d="M15.4914 41.7856H15.2347C10.9339 40.9074 7.06849 38.5706 4.29241 35.1704C1.51632 31.7702 0 27.5154 0 23.1259C0 18.7363 1.51632 14.4816 4.29241 11.0814C7.06849 7.6812 10.9339 5.34433 15.2347 4.46618C15.5592 4.40058 15.8964 4.46648 16.1723 4.64936C16.4482 4.83224 16.6402 5.11715 16.7062 5.44152C16.7411 5.60235 16.7434 5.76852 16.713 5.93024C16.6826 6.09197 16.62 6.24597 16.5291 6.38314C16.4382 6.5203 16.3207 6.63786 16.1836 6.72888C16.0465 6.8199 15.8926 6.88256 15.7309 6.91311C11.9934 7.67527 8.63397 9.70535 6.22122 12.6598C3.80848 15.6142 2.49059 19.3114 2.49059 23.1259C2.49059 26.9403 3.80848 30.6376 6.22122 33.592C8.63397 36.5465 11.9934 38.5765 15.7309 39.3387C16.0251 39.4081 16.2842 39.5817 16.4601 39.8275C16.636 40.0733 16.7168 40.3745 16.6875 40.6754C16.6583 40.9762 16.521 41.2562 16.301 41.4635C16.0811 41.6708 15.7934 41.7913 15.4914 41.8027V41.7856Z" fill="#38BCEA"/>
<path d="M15.4911 35.3346C15.2272 35.3312 14.9706 35.2477 14.7553 35.095C11.9489 33.0753 9.934 30.1408 9.05731 26.7961C8.99069 26.5333 9.01146 26.2558 9.11642 26.0058C9.22137 25.7557 9.40486 25.5467 9.63913 25.4101C9.98217 25.1326 10.2588 24.7819 10.4488 24.3837C10.6389 23.9855 10.7376 23.5499 10.7376 23.1087C10.7376 22.6674 10.6389 22.2318 10.4488 21.8336C10.2588 21.4354 9.98217 21.0847 9.63913 20.8072C9.40486 20.6706 9.22137 20.4615 9.11642 20.2115C9.01146 19.9615 8.99069 19.6841 9.05731 19.4212C9.934 16.0766 11.9489 13.142 14.7553 11.1223C14.8865 11.0089 15.0398 10.9241 15.2055 10.8732C15.3712 10.8223 15.5457 10.8064 15.7179 10.8266C15.8901 10.8468 16.0562 10.9027 16.2056 10.9906C16.355 11.0784 16.4845 11.1965 16.5858 11.3371C16.6872 11.4778 16.7581 11.638 16.7941 11.8076C16.8301 11.9771 16.8305 12.1524 16.7951 12.3221C16.7598 12.4918 16.6894 12.6523 16.5887 12.7934C16.4879 12.9344 16.3589 13.0529 16.2098 13.1414C14.1041 14.6605 12.5296 16.8036 11.7096 19.2672C12.6865 20.3078 13.2302 21.6814 13.2302 23.1087C13.2302 24.5359 12.6865 25.9096 11.7096 26.9501C12.5296 29.4137 14.1041 31.5568 16.2098 33.0759C16.4743 33.265 16.6532 33.551 16.7077 33.8715C16.7622 34.1921 16.6878 34.5211 16.5007 34.787C16.3885 34.9524 16.2382 35.0884 16.0625 35.1837C15.8869 35.279 15.6909 35.3307 15.4911 35.3346Z" fill="#38BCEA"/>
<path d="M9.05765 28.0794C8.03711 28.2585 6.9862 28.1193 6.04754 27.6805C5.10887 27.2417 4.32796 26.5248 3.81084 25.6269C3.29371 24.729 3.06541 23.6937 3.15695 22.6616C3.24849 21.6295 3.65545 20.6506 4.32253 19.8578C4.98961 19.0649 5.88452 18.4966 6.88576 18.2299C7.88699 17.9632 8.94603 18.0111 9.91911 18.367C10.8922 18.723 11.7322 19.3697 12.325 20.2195C12.9178 21.0693 13.2347 22.081 13.2328 23.1172C13.3279 24.3269 12.9434 25.5254 12.1622 26.4539C11.381 27.3824 10.2658 27.9663 9.05765 28.0794ZM9.05765 20.636C8.15076 20.636 7.34654 21.7654 7.34654 23.1172C7.34654 24.469 8.11654 25.5812 9.05765 25.5812C9.99876 25.5812 10.7688 24.4519 10.7688 23.1172C10.7688 21.7825 9.96454 20.636 9.05765 20.636Z" fill="#38BCEA"/>
</svg>
