<svg width="60" height="62" viewBox="0 0 60 62" fill="none" xmlns="http://www.w3.org/2000/svg">
<path d="M11.3167 61.2292C10.6538 61.2225 10.0037 61.0463 9.42819 60.7174C8.85264 60.3885 8.37078 59.9179 8.02845 59.3502C4.86831 54.3823 4.45551 50.5816 3.98576 46.183C3.85765 44.973 3.71529 43.7346 3.51601 42.3965C1.76307 39.7227 0.679192 36.6663 0.355871 33.4855C0 29.756 0 27.3076 0 27.2079C0 19.3076 5.9217 12.8877 13.1957 12.8877C13.4713 12.8877 13.7356 12.9972 13.9305 13.192C14.1253 13.3869 14.2348 13.6513 14.2348 13.9269C14.2348 14.2025 14.1253 14.4667 13.9305 14.6616C13.7356 14.8565 13.4713 14.966 13.1957 14.966C7.06049 14.966 2.07827 20.4606 2.07827 27.2079C2.07827 27.2079 2.07828 29.6706 2.41992 33.2862C2.68324 36.1891 3.66135 38.9816 5.26689 41.4143C5.35378 41.5361 5.40771 41.6783 5.42347 41.8271C5.65123 43.2506 5.79358 44.6741 5.93593 45.9267C6.39144 50.1972 6.76154 53.642 9.66545 58.2114C9.85934 58.5614 10.1664 58.8351 10.5362 58.9877C10.9061 59.1403 11.3168 59.1627 11.701 59.0513C12.1403 58.9018 12.518 58.6115 12.7754 58.2254C13.0328 57.8393 13.1555 57.379 13.1245 56.916V51.6349C13.0482 50.6453 13.1771 49.6505 13.5034 48.7131C13.8297 47.7757 14.3462 46.9158 15.0205 46.1874C15.6948 45.4591 16.5124 44.8779 17.422 44.4805C18.3315 44.0831 19.3134 43.8779 20.306 43.8779C21.2986 43.8779 22.2804 44.0831 23.19 44.4805C24.0995 44.8779 24.9172 45.4591 25.5915 46.1874C26.2658 46.9158 26.7823 47.7757 27.1086 48.7131C27.4348 49.6505 27.5638 50.6453 27.4875 51.6349V56.916C27.4565 57.379 27.5792 57.8393 27.8366 58.2254C28.094 58.6115 28.4717 58.9018 28.911 59.0513C29.2953 59.1601 29.705 59.1364 30.0743 58.9841C30.4435 58.8317 30.7507 58.5596 30.9465 58.2114C32.4029 55.982 33.4311 53.5008 33.9786 50.8947C34.0334 50.6249 34.1932 50.3878 34.4228 50.2357C34.6523 50.0835 34.9328 50.0288 35.2028 50.0833C35.4737 50.1415 35.7108 50.3041 35.8627 50.536C36.0146 50.7678 36.069 51.0501 36.0141 51.3218C35.4177 54.1744 34.2875 56.8887 32.6832 59.3217C32.2502 60.0505 31.5876 60.615 30.7993 60.9267C30.011 61.2384 29.1416 61.2797 28.3273 61.0441C27.4595 60.7613 26.7051 60.2078 26.1748 59.4649C25.6445 58.722 25.3662 57.8287 25.3807 56.916V51.6349C25.4564 50.9185 25.3807 50.1942 25.1584 49.509C24.9361 48.8237 24.5722 48.1929 24.0903 47.6574C23.6084 47.1219 23.0193 46.6937 22.3612 46.4006C21.7032 46.1074 20.9908 45.956 20.2704 45.956C19.55 45.956 18.8377 46.1074 18.1796 46.4006C17.5215 46.6937 16.9324 47.1219 16.4505 47.6574C15.9687 48.1929 15.6047 48.8237 15.3824 49.509C15.1601 50.1942 15.0844 50.9185 15.1601 51.6349V56.916C15.1746 57.8287 14.8963 58.722 14.366 59.4649C13.8357 60.2078 13.0813 60.7613 12.2135 61.0441C11.9223 61.1388 11.6215 61.2008 11.3167 61.2292Z" fill="#38BCEA"/>
<path d="M58.7472 43.9197C58.568 43.9186 58.3918 43.8724 58.2351 43.7854C58.0783 43.6983 57.9461 43.5732 57.8504 43.4215L33.5231 2.75255C33.3296 2.44169 33.0237 2.21737 32.669 2.12622C32.4923 2.07708 32.3072 2.06562 32.1257 2.09259C31.9442 2.11957 31.7704 2.18435 31.6156 2.28278C31.4581 2.37436 31.3211 2.4975 31.2133 2.64447C31.1056 2.79144 31.0293 2.95907 30.9893 3.13688C30.9411 3.31373 30.93 3.4987 30.957 3.68002C30.9839 3.86135 31.0483 4.03511 31.1459 4.19029L52.3273 39.5923C52.4511 39.8273 52.4802 40.1008 52.4086 40.3565C52.337 40.6123 52.1703 40.8309 51.9425 40.9676C51.7148 41.1042 51.4434 41.1485 51.184 41.0913C50.9247 41.034 50.6971 40.8797 50.548 40.6599L29.3523 5.24365C28.8829 4.45635 28.7451 3.51492 28.9693 2.62614C29.1935 1.73735 29.7613 0.973867 30.548 0.503424C30.9371 0.266257 31.3693 0.108652 31.8197 0.039688C32.2701 -0.0292765 32.7297 -0.00820738 33.1719 0.101679C33.6141 0.211565 34.0301 0.408069 34.3958 0.679839C34.7615 0.951609 35.0697 1.29325 35.3025 1.68494L59.6298 42.3539C59.7016 42.4703 59.7494 42.5998 59.7703 42.7349C59.7913 42.87 59.785 43.008 59.7518 43.1406C59.7187 43.2733 59.6593 43.3979 59.5772 43.5073C59.4952 43.6167 59.392 43.7085 59.2739 43.7774C59.1139 43.8703 58.9323 43.9193 58.7472 43.9197Z" fill="#38BCEA"/>
<path d="M35.5161 47.9623C35.3541 47.9636 35.1943 47.9253 35.0504 47.8509C34.9066 47.7765 34.783 47.6681 34.6904 47.5352C34.5803 47.391 34.5103 47.2202 34.4878 47.0401C34.4653 46.86 34.491 46.6772 34.5623 46.5103C37.6655 39.2078 29.751 33.8982 29.4093 33.699C29.2713 33.6117 29.1565 33.4923 29.0747 33.351C28.9928 33.2097 28.9465 33.0507 28.9396 32.8876C28.9323 32.723 28.9632 32.559 29.0299 32.4083C29.0966 32.2577 29.1972 32.1245 29.3239 32.0193C31.4449 30.3253 31.4876 28.7453 31.2598 27.8485C23.6157 30.852 16.6691 23.9339 16.3702 23.578C16.2373 23.4497 16.1416 23.2879 16.0931 23.1097C16.0446 22.9314 16.0452 22.7434 16.0947 22.5655C16.1443 22.3875 16.2411 22.2263 16.3748 22.0988C16.5085 21.9714 16.6741 21.8824 16.8542 21.8414C21.5374 20.6599 23.4022 19.4499 24.1424 18.6954C19.0036 17.7559 15.9859 10.6528 15.8577 10.3254C15.7774 10.138 15.7549 9.93082 15.7929 9.73049C15.8309 9.53017 15.9278 9.34576 16.0713 9.20082C16.2074 9.05334 16.3854 8.95107 16.5813 8.9078C16.7773 8.86454 16.9818 8.88234 17.1674 8.9588C17.4378 9.04421 23.8435 11.2933 30.904 5.94103C31.1224 5.78781 31.3908 5.72319 31.655 5.76018C31.9192 5.79717 32.1595 5.93303 32.3274 6.14033C32.4841 6.35757 32.5507 6.62687 32.5136 6.89209C32.4765 7.1573 32.3384 7.39794 32.1282 7.56382C30.2585 9.06869 28.1057 10.183 25.7975 10.8407C23.4893 11.4985 21.0726 11.6863 18.6905 11.393C19.9716 13.5994 22.42 16.9019 25.5232 16.6741C25.7546 16.6603 25.984 16.7242 26.1749 16.8558C26.3657 16.9873 26.5071 17.1789 26.5766 17.4001C26.6504 17.7061 26.662 18.0238 26.6107 18.3343C26.5593 18.6449 26.4461 18.942 26.2776 19.2079C25.3951 20.788 23.0321 22.1545 19.2314 23.2933C21.5659 25.0727 26.4485 27.9054 31.2741 25.4712C31.4943 25.3548 31.7499 25.3238 31.9916 25.3843C32.2333 25.4447 32.4441 25.5922 32.5837 25.7986C33.2463 26.884 33.5052 28.1681 33.3152 29.4254C33.1252 30.6828 32.4983 31.833 31.5445 32.674C33.7509 34.4961 38.5481 39.2648 37.025 45.4854C40.0143 44.7452 46.2207 42.4961 48.4128 36.3182C48.5061 36.0601 48.6976 35.8495 48.9457 35.7321C49.1937 35.6148 49.478 35.6003 49.7367 35.6918C49.9957 35.7881 50.2066 35.9824 50.3237 36.2327C50.4409 36.483 50.455 36.7693 50.363 37.0299C46.9751 46.4676 36.0285 47.8199 35.5588 47.8768L35.5161 47.9623Z" fill="#38BCEA"/>
<path d="M8.0999 25.1155C7.9641 25.1155 7.82965 25.0885 7.70437 25.0361C7.57908 24.9837 7.46545 24.907 7.37009 24.8103C7.27473 24.7136 7.19955 24.599 7.14888 24.473C7.09822 24.347 7.0731 24.2122 7.07499 24.0764V22.9091C7.05785 22.7634 7.07174 22.6157 7.11578 22.4758C7.15982 22.3358 7.233 22.2068 7.33049 22.0972C7.42798 21.9875 7.54757 21.8998 7.68141 21.8397C7.81525 21.7796 7.96029 21.7485 8.107 21.7485C8.25371 21.7485 8.39876 21.7796 8.5326 21.8397C8.66644 21.8998 8.78605 21.9875 8.88354 22.0972C8.98103 22.2068 9.05419 22.3358 9.09822 22.4758C9.14226 22.6157 9.15618 22.7634 9.13904 22.9091V24.0764C9.14095 24.2134 9.11538 24.3493 9.06384 24.4763C9.0123 24.6032 8.93582 24.7185 8.83895 24.8154C8.74207 24.9123 8.62676 24.9888 8.49982 25.0403C8.37288 25.0918 8.23689 25.1174 8.0999 25.1155Z" fill="#38BCEA"/>
<path d="M8.0999 30.9944C7.9641 30.9944 7.82965 30.9674 7.70437 30.915C7.57908 30.8626 7.46545 30.7859 7.37009 30.6892C7.27473 30.5925 7.19955 30.4779 7.14888 30.3519C7.09822 30.2259 7.0731 30.091 7.07499 29.9552V28.788C7.05785 28.6423 7.07174 28.4946 7.11578 28.3547C7.15982 28.2147 7.233 28.0857 7.33049 27.9761C7.42798 27.8664 7.54757 27.7787 7.68141 27.7186C7.81525 27.6585 7.96029 27.6274 8.107 27.6274C8.25371 27.6274 8.39876 27.6585 8.5326 27.7186C8.66644 27.7787 8.78605 27.8664 8.88354 27.9761C8.98103 28.0857 9.05419 28.2147 9.09822 28.3547C9.14226 28.4946 9.15618 28.6423 9.13904 28.788V29.9552C9.14095 30.0922 9.11538 30.2282 9.06384 30.3552C9.0123 30.4821 8.93582 30.5974 8.83895 30.6943C8.74207 30.7912 8.62676 30.8677 8.49982 30.9192C8.37288 30.9707 8.23689 30.9963 8.0999 30.9944Z" fill="#38BCEA"/>
<path d="M11.6296 27.4642H10.4623C10.3166 27.4814 10.1689 27.4675 10.029 27.4234C9.88904 27.3794 9.76001 27.3062 9.65037 27.2087C9.54074 27.1112 9.45301 26.9917 9.39292 26.8578C9.33283 26.724 9.30176 26.5789 9.30176 26.4322C9.30176 26.2855 9.33283 26.1405 9.39292 26.0066C9.45301 25.8728 9.54074 25.7532 9.65037 25.6557C9.76001 25.5582 9.88904 25.485 10.029 25.441C10.1689 25.3969 10.3166 25.383 10.4623 25.4002H11.6296C11.7753 25.383 11.923 25.3969 12.0629 25.441C12.2029 25.485 12.3319 25.5582 12.4415 25.6557C12.5512 25.7532 12.6389 25.8728 12.699 26.0066C12.7591 26.1405 12.7901 26.2855 12.7901 26.4322C12.7901 26.5789 12.7591 26.724 12.699 26.8578C12.6389 26.9917 12.5512 27.1112 12.4415 27.2087C12.3319 27.3062 12.2029 27.3794 12.0629 27.4234C11.923 27.4675 11.7753 27.4814 11.6296 27.4642Z" fill="#38BCEA"/>
<path d="M5.75114 27.4642H4.5839C4.43819 27.4814 4.29051 27.4675 4.15057 27.4234C4.01062 27.3794 3.88159 27.3062 3.77196 27.2087C3.66232 27.1112 3.57457 26.9917 3.51448 26.8578C3.45439 26.724 3.42334 26.5789 3.42334 26.4322C3.42334 26.2855 3.45439 26.1405 3.51448 26.0066C3.57457 25.8728 3.66232 25.7532 3.77196 25.6557C3.88159 25.5582 4.01062 25.485 4.15057 25.441C4.29051 25.3969 4.43819 25.383 4.5839 25.4002H5.75114C5.89685 25.383 6.04452 25.3969 6.18447 25.441C6.32441 25.485 6.45345 25.5582 6.56308 25.6557C6.67271 25.7532 6.76047 25.8728 6.82056 26.0066C6.88064 26.1405 6.9117 26.2855 6.9117 26.4322C6.9117 26.5789 6.88064 26.724 6.82056 26.8578C6.76047 26.9917 6.67271 27.1112 6.56308 27.2087C6.45345 27.3062 6.32441 27.3794 6.18447 27.4234C6.04452 27.4675 5.89685 27.4814 5.75114 27.4642Z" fill="#38BCEA"/>
</svg>
