<svg width="65" height="43" viewBox="0 0 65 43" fill="none" xmlns="http://www.w3.org/2000/svg">
<path d="M20.9821 17.4234H11.3593C10.2533 17.4242 9.1902 16.9958 8.39369 16.2285C7.59718 15.4612 7.12942 14.4148 7.08887 13.3096V13.0249C7.08887 5.90745 11.1458 0 16.128 0C21.1102 0 25.1813 5.85051 25.1813 13.0249V13.3096C25.1414 14.4026 24.6835 15.4387 23.9022 16.2041C23.1209 16.9695 22.0757 17.4059 20.9821 17.4234ZM16.1707 2.07827C12.3273 2.07827 9.20986 6.9893 9.20986 13.0249V13.2811C9.2284 13.8374 9.46346 14.3645 9.86497 14.7501C10.2665 15.1357 10.8027 15.3492 11.3593 15.3452H20.9821C21.5401 15.3493 22.0779 15.1362 22.4817 14.7511C22.8855 14.3659 23.1236 13.8387 23.1458 13.2811V13.0249C23.1458 6.9893 20.0426 2.07827 16.1707 2.07827Z" fill="#38BCEA"/>
<path d="M17.8081 13.2243H14.5483C14.0336 13.2243 13.5397 13.0208 13.1743 12.6581C12.809 12.2955 12.6019 11.8031 12.5981 11.2883V8.02854C12.6019 7.51247 12.8085 7.01863 13.1735 6.65371C13.5384 6.28878 14.0323 6.0821 14.5483 6.07837H17.8081C18.3228 6.08213 18.8152 6.28925 19.1779 6.65457C19.5405 7.0199 19.7441 7.51377 19.744 8.02854V11.2883C19.744 11.8018 19.5401 12.2942 19.177 12.6572C18.814 13.0203 18.3215 13.2243 17.8081 13.2243ZM14.6764 11.146H17.6658V8.15669H14.6764V11.146Z" fill="#38BCEA"/>
<path d="M16.1705 8.15652C15.8949 8.15652 15.6306 8.047 15.4357 7.85213C15.2408 7.65725 15.1313 7.39296 15.1313 7.11736V5.93589C15.1313 5.66029 15.2408 5.39596 15.4357 5.20108C15.6306 5.0062 15.8949 4.89673 16.1705 4.89673C16.4461 4.89673 16.7104 5.0062 16.9053 5.20108C17.1001 5.39596 17.2096 5.66029 17.2096 5.93589V7.16006C17.1986 7.42819 17.0843 7.68164 16.8906 7.86737C16.6969 8.05311 16.4388 8.15675 16.1705 8.15652Z" fill="#38BCEA"/>
<path d="M16.1705 13.9785C15.8949 13.9785 15.6306 13.869 15.4357 13.6742C15.2408 13.4793 15.1313 13.215 15.1313 12.9394V12.1849C15.1313 11.9093 15.2408 11.645 15.4357 11.4501C15.6306 11.2553 15.8949 11.1458 16.1705 11.1458C16.4461 11.1458 16.7104 11.2553 16.9053 11.4501C17.1001 11.645 17.2096 11.9093 17.2096 12.1849V12.9394C17.2096 13.215 17.1001 13.4793 16.9053 13.6742C16.7104 13.869 16.4461 13.9785 16.1705 13.9785Z" fill="#38BCEA"/>
<path d="M36.9962 17.4234H27.3735C26.2675 17.4242 25.2044 16.9958 24.4079 16.2285C23.6113 15.4612 23.1436 14.4148 23.103 13.3096V13.0249C23.103 5.90745 27.16 0 32.1421 0C37.1243 0 41.1955 5.85051 41.1955 13.0249V13.3238C41.152 14.4143 40.6926 15.4468 39.9116 16.2092C39.1307 16.9717 38.0875 17.4061 36.9962 17.4234ZM32.1849 2.07827C28.3414 2.07827 25.224 6.9893 25.224 13.0249V13.2811C25.2426 13.8374 25.4776 14.3645 25.8791 14.7501C26.2806 15.1357 26.8168 15.3492 27.3735 15.3452H36.9962C37.5543 15.3493 38.092 15.1362 38.4958 14.7511C38.8996 14.3659 39.1378 13.8387 39.1599 13.2811V13.0249C39.1599 6.9893 36.0283 2.07827 32.1849 2.07827Z" fill="#38BCEA"/>
<path d="M33.8219 13.2243H30.5621C30.3043 13.23 30.048 13.1841 29.8082 13.0894C29.5683 12.9946 29.3498 12.8529 29.1655 12.6726C28.9812 12.4922 28.8348 12.2769 28.7348 12.0392C28.6349 11.8015 28.5834 11.5462 28.5835 11.2883V8.02854C28.5835 7.51377 28.787 7.0199 29.1496 6.65457C29.5123 6.28925 30.0047 6.08213 30.5194 6.07837H33.7792C34.2915 6.08585 34.7802 6.29461 35.1398 6.65953C35.4994 7.02445 35.701 7.51621 35.7009 8.02854V11.2883C35.7011 11.7921 35.505 12.2761 35.1542 12.6375C34.8033 12.999 34.3254 13.2095 33.8219 13.2243ZM30.6903 11.146H33.6796V8.15669H30.6903V11.146Z" fill="#38BCEA"/>
<path d="M32.1846 8.15652C31.909 8.15652 31.6447 8.047 31.4499 7.85213C31.255 7.65725 31.1455 7.39296 31.1455 7.11736V5.93589C31.1455 5.66029 31.255 5.39596 31.4499 5.20108C31.6447 5.0062 31.909 4.89673 32.1846 4.89673C32.4602 4.89673 32.7246 5.0062 32.9194 5.20108C33.1143 5.39596 33.2238 5.66029 33.2238 5.93589V7.16006C33.2128 7.42819 33.0984 7.68164 32.9047 7.86737C32.711 8.05311 32.453 8.15675 32.1846 8.15652Z" fill="#38BCEA"/>
<path d="M32.1846 13.9785C31.909 13.9785 31.6447 13.869 31.4499 13.6742C31.255 13.4793 31.1455 13.215 31.1455 12.9394V12.1849C31.1455 11.9093 31.255 11.645 31.4499 11.4501C31.6447 11.2553 31.909 11.1458 32.1846 11.1458C32.4602 11.1458 32.7246 11.2553 32.9194 11.4501C33.1143 11.645 33.2238 11.9093 33.2238 12.1849V12.9394C33.2238 13.215 33.1143 13.4793 32.9194 13.6742C32.7246 13.869 32.4602 13.9785 32.1846 13.9785Z" fill="#38BCEA"/>
<path d="M53.0104 17.4234H43.3876C42.2817 17.4242 41.2185 16.9958 40.422 16.2285C39.6255 15.4612 39.1577 14.4148 39.1172 13.3096V13.0249C39.1172 5.90745 43.1741 0 48.1563 0C53.1385 0 57.2097 5.85051 57.2097 13.0249V13.3238C57.1661 14.4143 56.7067 15.4468 55.9258 16.2092C55.1449 16.9717 54.1017 17.4061 53.0104 17.4234ZM48.199 2.07827C44.3556 2.07827 41.2382 6.9893 41.2382 13.0249V13.2811C41.2567 13.8374 41.4918 14.3645 41.8933 14.7501C42.2948 15.1357 42.831 15.3492 43.3876 15.3452H53.0104C53.5684 15.3493 54.1062 15.1362 54.51 14.7511C54.9138 14.3659 55.1519 13.8387 55.1741 13.2811V13.0249C55.1741 6.9893 52.0424 2.07827 48.199 2.07827Z" fill="#38BCEA"/>
<path d="M49.8359 13.2243H46.5761C46.0626 13.2243 45.5702 13.0203 45.2072 12.6572C44.8441 12.2942 44.6401 11.8018 44.6401 11.2883V8.02854C44.6401 7.51377 44.8436 7.0199 45.2063 6.65457C45.5689 6.28925 46.0613 6.08213 46.5761 6.07837H49.8359C50.3506 6.08213 50.843 6.28925 51.2056 6.65457C51.5683 7.0199 51.7718 7.51377 51.7718 8.02854V11.2883C51.7718 11.8018 51.5678 12.2942 51.2048 12.6572C50.8417 13.0203 50.3493 13.2243 49.8359 13.2243ZM46.7042 11.146H49.6935V8.15669H46.7042V11.146Z" fill="#38BCEA"/>
<path d="M48.1993 8.15652C47.9237 8.15652 47.6594 8.047 47.4645 7.85213C47.2696 7.65725 47.1602 7.39296 47.1602 7.11736V5.93589C47.1602 5.66029 47.2696 5.39596 47.4645 5.20108C47.6594 5.0062 47.9237 4.89673 48.1993 4.89673C48.4749 4.89673 48.7392 5.0062 48.9341 5.20108C49.129 5.39596 49.2384 5.66029 49.2384 5.93589V7.16006C49.2274 7.42819 49.1131 7.68164 48.9194 7.86737C48.7257 8.05311 48.4676 8.15675 48.1993 8.15652Z" fill="#38BCEA"/>
<path d="M48.1993 13.9785C47.9237 13.9785 47.6594 13.869 47.4645 13.6742C47.2696 13.4793 47.1602 13.215 47.1602 12.9394V12.1849C47.1602 11.9093 47.2696 11.645 47.4645 11.4501C47.6594 11.2553 47.9237 11.1458 48.1993 11.1458C48.4749 11.1458 48.7392 11.2553 48.9341 11.4501C49.129 11.645 49.2384 11.9093 49.2384 12.1849V12.9394C49.2384 13.215 49.129 13.4793 48.9341 13.6742C48.7392 13.869 48.4749 13.9785 48.1993 13.9785Z" fill="#38BCEA"/>
<path d="M34.7188 10.6762C34.4476 10.6724 34.188 10.5655 33.9928 10.3773C33.7947 10.1816 33.6821 9.91547 33.6796 9.63704V8.21356H30.6903V9.63704C30.6859 9.91231 30.5793 10.1761 30.3914 10.3773C30.2931 10.4765 30.1753 10.5543 30.0455 10.6058C29.9156 10.6572 29.7765 10.6812 29.6369 10.6762C25.7935 10.6762 22.0782 10.4627 18.6192 10.1922C18.3586 10.1707 18.1158 10.0518 17.939 9.85925C17.7622 9.66665 17.6646 9.41448 17.6654 9.15306V8.15665H14.6761V8.65484C14.6793 8.80211 14.6507 8.94837 14.5923 9.0836C14.5339 9.21883 14.447 9.3399 14.3376 9.43852C14.2282 9.53714 14.0988 9.61098 13.9582 9.65507C13.8177 9.69916 13.6692 9.71244 13.5231 9.69399C0 8.05699 0 5.53744 0 4.59794C0.0297445 4.34511 0.151267 4.11197 0.341503 3.9428C0.531739 3.77364 0.777451 3.6802 1.03202 3.6802C1.2866 3.6802 1.53232 3.77364 1.72256 3.9428C1.91279 4.11197 2.03431 4.34511 2.06406 4.59794C2.30605 5.08193 4.64056 6.47694 12.6832 7.53031C12.7954 7.12165 13.0386 6.76107 13.3755 6.50393C13.7123 6.24679 14.1242 6.10729 14.548 6.10683H17.8078C18.3225 6.11059 18.8149 6.31771 19.1776 6.68304C19.5402 7.04836 19.7437 7.54224 19.7437 8.057V8.22781C22.5907 8.4271 25.5373 8.55519 28.6263 8.61213V8.057C28.6262 7.54224 28.8298 7.04836 29.1924 6.68304C29.5551 6.31771 30.0475 6.11059 30.5622 6.10683H33.822C34.3219 6.12504 34.7957 6.33462 35.1454 6.69229C35.4951 7.04996 35.694 7.52832 35.701 8.0285V8.58368C38.7757 8.58368 41.765 8.39864 44.5835 8.19935V8.0285C44.5835 7.51374 44.787 7.01986 45.1497 6.65454C45.5123 6.28922 46.0047 6.08209 46.5195 6.07833H49.7792C50.2024 6.08114 50.6132 6.22156 50.9496 6.47834C51.286 6.73513 51.5297 7.09434 51.644 7.50182C59.7721 6.4342 62.0639 5.02499 62.2632 4.55524C62.2632 4.42131 62.2898 4.28869 62.3415 4.16514C62.3931 4.04158 62.4689 3.92954 62.5642 3.8355C62.6596 3.74147 62.7727 3.66729 62.897 3.61734C63.0212 3.5674 63.1542 3.54265 63.2881 3.54453C63.4264 3.54639 63.5631 3.5755 63.6901 3.63016C63.8172 3.68482 63.9323 3.76399 64.0288 3.86313C64.1253 3.96227 64.2013 4.07945 64.2525 4.20797C64.3037 4.33649 64.3291 4.47381 64.3272 4.61215C64.3272 5.55165 64.3272 8.07124 50.8041 9.70824C50.6577 9.72417 50.5096 9.70923 50.3694 9.66437C50.2291 9.61951 50.0998 9.54573 49.9898 9.44781C49.8798 9.34989 49.7916 9.22998 49.7308 9.09585C49.67 8.96172 49.638 8.81634 49.6369 8.66908V8.17086H46.6476V9.16731C46.6485 9.42873 46.5508 9.68085 46.374 9.87345C46.1972 10.066 45.9544 10.185 45.6938 10.2065C42.2348 10.4769 38.5764 10.6335 34.6761 10.6905L34.7188 10.6762Z" fill="#38BCEA"/>
<path d="M16.1705 42.7472C11.1883 42.7472 7.13135 36.8967 7.13135 29.7223V29.4376C7.1719 28.3323 7.63966 27.2859 8.43617 26.5186C9.23268 25.7513 10.2958 25.323 11.4018 25.3237H21.0246C22.1282 25.3228 23.1893 25.7492 23.9854 26.5135C24.7815 27.2778 25.2509 28.3206 25.295 29.4234V29.7223C25.2238 36.8967 21.1669 42.7472 16.1705 42.7472ZM11.3591 27.402C10.8025 27.398 10.2663 27.6115 9.86475 27.9971C9.46324 28.3826 9.22817 28.9097 9.20963 29.4661V29.7223C9.20963 35.7579 12.3271 40.6689 16.1705 40.6689C20.0139 40.6689 23.1455 35.7579 23.1455 29.7223V29.4661C23.1234 28.9085 22.8852 28.3813 22.4814 27.9961C22.0777 27.6109 21.5399 27.3979 20.9819 27.402H11.3591Z" fill="#38BCEA"/>
<path d="M17.8081 36.6546H14.5483C14.0336 36.6546 13.5397 36.4511 13.1743 36.0884C12.809 35.7258 12.6019 35.2334 12.5981 34.7187V31.4589C12.6019 30.9442 12.809 30.4518 13.1743 30.0891C13.5397 29.7265 14.0336 29.5229 14.5483 29.5229H17.8081C18.3215 29.5229 18.814 29.7269 19.177 30.09C19.5401 30.453 19.744 30.9455 19.744 31.4589V34.7187C19.744 35.2321 19.5401 35.7245 19.177 36.0876C18.814 36.4506 18.3215 36.6546 17.8081 36.6546ZM14.6764 34.5905H17.6658V31.6013H14.6764V34.5905Z" fill="#38BCEA"/>
<path d="M16.1708 37.8502C16.0343 37.8502 15.8992 37.8233 15.7731 37.7711C15.647 37.7189 15.5325 37.6423 15.436 37.5459C15.3395 37.4494 15.2629 37.3348 15.2107 37.2087C15.1585 37.0826 15.1316 36.9475 15.1316 36.811V35.6296C15.1145 35.4839 15.1284 35.3362 15.1724 35.1962C15.2165 35.0563 15.2896 34.9272 15.3871 34.8176C15.4846 34.708 15.6042 34.6203 15.7381 34.5602C15.8719 34.5001 16.0169 34.469 16.1637 34.469C16.3104 34.469 16.4554 34.5001 16.5892 34.5602C16.7231 34.6203 16.8427 34.708 16.9402 34.8176C17.0377 34.9272 17.1108 35.0563 17.1549 35.1962C17.1989 35.3362 17.2128 35.4839 17.1957 35.6296V36.811C17.1957 37.0842 17.0882 37.3464 16.8964 37.5409C16.7046 37.7353 16.4439 37.8465 16.1708 37.8502Z" fill="#38BCEA"/>
<path d="M16.1705 31.6013C15.8949 31.6013 15.6306 31.4918 15.4357 31.2969C15.2408 31.102 15.1313 30.8378 15.1313 30.5622V29.8077C15.1313 29.6713 15.1582 29.5361 15.2104 29.4101C15.2627 29.284 15.3392 29.1694 15.4357 29.0729C15.5322 28.9764 15.6467 28.8999 15.7728 28.8477C15.8989 28.7954 16.034 28.7686 16.1705 28.7686C16.3069 28.7686 16.4421 28.7954 16.5681 28.8477C16.6942 28.8999 16.8088 28.9764 16.9053 29.0729C17.0018 29.1694 17.0783 29.284 17.1305 29.4101C17.1827 29.5361 17.2096 29.6713 17.2096 29.8077V30.5622C17.2096 30.8378 17.1001 31.102 16.9053 31.2969C16.7104 31.4918 16.4461 31.6013 16.1705 31.6013Z" fill="#38BCEA"/>
<path d="M32.1846 42.7472C27.2024 42.7472 23.1455 36.8967 23.1455 29.7223V29.4376C23.1861 28.3323 23.6538 27.2859 24.4503 26.5186C25.2468 25.7513 26.31 25.323 27.416 25.3237H37.0387C38.1423 25.3228 39.2034 25.7492 39.9996 26.5135C40.7957 27.2778 41.265 28.3206 41.3092 29.4234V29.7223C41.238 36.8967 37.1241 42.7472 32.1846 42.7472ZM27.3733 27.402C26.8166 27.398 26.2804 27.6115 25.8789 27.9971C25.4774 28.3826 25.2423 28.9097 25.2238 29.4661V29.7223C25.2238 35.7579 28.3412 40.6689 32.1846 40.6689C36.028 40.6689 39.1597 35.7579 39.1597 29.7223V29.4661C39.1375 28.9085 38.8994 28.3813 38.4956 27.9961C38.0918 27.6109 37.554 27.3979 36.996 27.402H27.3733Z" fill="#38BCEA"/>
<path d="M33.8219 36.6546H30.5621C30.3043 36.6603 30.048 36.6144 29.8082 36.5197C29.5683 36.4249 29.3498 36.2833 29.1655 36.1029C28.9812 35.9226 28.8348 35.7072 28.7348 35.4695C28.6349 35.2318 28.5834 34.9765 28.5835 34.7187V31.4589C28.5835 30.9455 28.7875 30.453 29.1505 30.09C29.5136 29.7269 30.006 29.5229 30.5194 29.5229H33.7792C34.2902 29.5267 34.779 29.7323 35.1389 30.095C35.4989 30.4576 35.7009 30.9479 35.7009 31.4589V34.7187C35.7011 35.2224 35.505 35.7064 35.1542 36.0679C34.8033 36.4293 34.3254 36.6398 33.8219 36.6546ZM30.6903 34.5905H33.6796V31.6013H30.6903V34.5905Z" fill="#38BCEA"/>
<path d="M32.1846 37.8506C32.0482 37.8506 31.9131 37.8237 31.787 37.7715C31.6609 37.7193 31.5464 37.6428 31.4499 37.5463C31.3534 37.4498 31.2768 37.3352 31.2246 37.2091C31.1724 37.083 31.1455 36.9479 31.1455 36.8115V35.63C31.1455 35.4935 31.1724 35.3584 31.2246 35.2323C31.2768 35.1062 31.3534 34.9917 31.4499 34.8952C31.5464 34.7987 31.6609 34.7221 31.787 34.6699C31.9131 34.6177 32.0482 34.5908 32.1846 34.5908C32.3211 34.5908 32.4562 34.6177 32.5823 34.6699C32.7084 34.7221 32.8229 34.7987 32.9194 34.8952C33.0159 34.9917 33.0925 35.1062 33.1447 35.2323C33.1969 35.3584 33.2238 35.4935 33.2238 35.63V36.8115C33.2238 36.9479 33.1969 37.083 33.1447 37.2091C33.0925 37.3352 33.0159 37.4498 32.9194 37.5463C32.8229 37.6428 32.7084 37.7193 32.5823 37.7715C32.4562 37.8237 32.3211 37.8506 32.1846 37.8506Z" fill="#38BCEA"/>
<path d="M32.1846 31.6013C31.909 31.6013 31.6447 31.4918 31.4499 31.2969C31.255 31.102 31.1455 30.8378 31.1455 30.5622V29.8077C31.1455 29.6713 31.1724 29.5361 31.2246 29.4101C31.2768 29.284 31.3534 29.1694 31.4499 29.0729C31.5464 28.9764 31.6609 28.8999 31.787 28.8477C31.9131 28.7954 32.0482 28.7686 32.1846 28.7686C32.3211 28.7686 32.4562 28.7954 32.5823 28.8477C32.7084 28.8999 32.8229 28.9764 32.9194 29.0729C33.0159 29.1694 33.0925 29.284 33.1447 29.4101C33.1969 29.5361 33.2238 29.6713 33.2238 29.8077V30.5622C33.2238 30.8378 33.1143 31.102 32.9194 31.2969C32.7246 31.4918 32.4602 31.6013 32.1846 31.6013Z" fill="#38BCEA"/>
<path d="M48.1988 42.7472C43.2166 42.7472 39.1597 36.8967 39.1597 29.7223V29.4234C39.2038 28.3206 39.6732 27.2778 40.4693 26.5135C41.2654 25.7492 42.3265 25.3228 43.4301 25.3237H53.0529C54.1565 25.3228 55.2176 25.7492 56.0137 26.5135C56.8098 27.2778 57.2792 28.3206 57.3233 29.4234V29.7223C57.2522 36.8967 53.1952 42.7472 48.1988 42.7472ZM43.3874 27.402C42.8308 27.398 42.2946 27.6115 41.8931 27.9971C41.4916 28.3826 41.2565 28.9097 41.238 29.4661V29.7223C41.238 35.7579 44.3554 40.6689 48.1988 40.6689C52.0422 40.6689 55.1739 35.7579 55.1739 29.7223V29.4661C55.1517 28.9085 54.9136 28.3813 54.5098 27.9961C54.106 27.6109 53.5682 27.3979 53.0102 27.402H43.3874Z" fill="#38BCEA"/>
<path d="M49.8359 36.6546H46.5761C46.0626 36.6546 45.5702 36.4506 45.2072 36.0876C44.8441 35.7245 44.6401 35.2321 44.6401 34.7187V31.4589C44.6401 30.9455 44.8441 30.453 45.2072 30.09C45.5702 29.7269 46.0626 29.5229 46.5761 29.5229H49.8359C50.3493 29.5229 50.8417 29.7269 51.2048 30.09C51.5678 30.453 51.7718 30.9455 51.7718 31.4589V34.7187C51.7718 35.2321 51.5678 35.7245 51.2048 36.0876C50.8417 36.4506 50.3493 36.6546 49.8359 36.6546ZM46.7042 34.5905H49.6935V31.6013H46.7042V34.5905Z" fill="#38BCEA"/>
<path d="M48.1993 37.8506C48.0628 37.8506 47.9277 37.8237 47.8016 37.7715C47.6756 37.7193 47.561 37.6428 47.4645 37.5463C47.368 37.4498 47.2915 37.3352 47.2393 37.2091C47.187 37.083 47.1602 36.9479 47.1602 36.8115V35.63C47.1602 35.3544 47.2696 35.0901 47.4645 34.8952C47.6594 34.7003 47.9237 34.5908 48.1993 34.5908C48.4749 34.5908 48.7392 34.7003 48.9341 34.8952C49.129 35.0901 49.2384 35.3544 49.2384 35.63V36.8115C49.2384 36.9479 49.2116 37.083 49.1593 37.2091C49.1071 37.3352 49.0306 37.4498 48.9341 37.5463C48.8376 37.6428 48.723 37.7193 48.597 37.7715C48.4709 37.8237 48.3358 37.8506 48.1993 37.8506Z" fill="#38BCEA"/>
<path d="M48.1993 31.6013C47.9237 31.6013 47.6594 31.4918 47.4645 31.2969C47.2696 31.102 47.1602 30.8378 47.1602 30.5622V29.8077C47.1602 29.5321 47.2696 29.2678 47.4645 29.0729C47.6594 28.878 47.9237 28.7686 48.1993 28.7686C48.4749 28.7686 48.7392 28.878 48.9341 29.0729C49.129 29.2678 49.2384 29.5321 49.2384 29.8077V30.5622C49.2384 30.8378 49.129 31.102 48.9341 31.2969C48.7392 31.4918 48.4749 31.6013 48.1993 31.6013Z" fill="#38BCEA"/>
<path d="M1.02501 39.2168C0.748121 39.2094 0.485307 39.0932 0.293482 38.8934C0.101657 38.6936 -0.00374204 38.4262 0.000101549 38.1492C0.000101549 37.2097 0.000101816 34.6902 13.5232 33.0532C13.6693 33.0347 13.8178 33.048 13.9583 33.0921C14.0989 33.1362 14.2283 33.21 14.3377 33.3086C14.4471 33.4073 14.534 33.5283 14.5924 33.6636C14.6508 33.7988 14.6794 33.9451 14.6762 34.0923V34.5905H17.6655V33.5941C17.6647 33.3327 17.7623 33.0805 17.9391 32.8879C18.1159 32.6953 18.3587 32.5764 18.6193 32.5549C22.0783 32.2845 25.7367 32.1279 29.637 32.071C29.7766 32.066 29.9157 32.0899 30.0456 32.1414C30.1754 32.1928 30.2932 32.2706 30.3915 32.3699C30.5818 32.5695 30.6888 32.8343 30.6904 33.1101V34.5336H33.6797V33.1101C33.6802 32.9721 33.7081 32.8356 33.7618 32.7085C33.8156 32.5814 33.8942 32.4663 33.9929 32.3699C34.089 32.2717 34.2044 32.1945 34.3318 32.1431C34.4591 32.0916 34.5958 32.0671 34.7331 32.071C38.5908 32.071 42.306 32.2845 45.7509 32.5549C46.0114 32.5764 46.2543 32.6953 46.431 32.8879C46.6078 33.0805 46.7055 33.3327 46.7046 33.5941V34.5905H49.6939V34.0923C49.6951 33.9451 49.7271 33.7996 49.7878 33.6655C49.8486 33.5314 49.9369 33.4115 50.0469 33.3136C50.1568 33.2157 50.2861 33.1419 50.4264 33.097C50.5667 33.0522 50.7148 33.0372 50.8612 33.0532C64.3843 34.6902 64.3843 37.2097 64.3843 38.1492C64.3843 38.4248 64.2748 38.6892 64.0799 38.884C63.885 39.0789 63.6207 39.1884 63.3451 39.1884C63.0695 39.1884 62.8052 39.0789 62.6103 38.884C62.4155 38.6892 62.306 38.4248 62.306 38.1492C62.1209 37.7364 59.8291 36.3272 51.701 35.3023C51.5889 35.7109 51.3457 36.0715 51.0088 36.3286C50.672 36.5858 50.2601 36.7253 49.8363 36.7257H46.5765C46.0631 36.7257 45.5706 36.5218 45.2076 36.1587C44.8445 35.7957 44.6406 35.3033 44.6406 34.7898V34.619C41.7936 34.4197 38.847 34.2916 35.758 34.2346V34.7898C35.758 35.3033 35.5541 35.7957 35.191 36.1587C34.8279 36.5218 34.3355 36.7257 33.8221 36.7257H30.5623C30.2984 36.7317 30.0361 36.6837 29.7914 36.5846C29.5467 36.4855 29.3249 36.3374 29.1396 36.1494C28.9543 35.9614 28.8094 35.7375 28.7138 35.4915C28.6182 35.2454 28.5739 34.9824 28.5837 34.7186V34.2062C25.4947 34.2062 22.5196 34.3912 19.7011 34.5905V34.7614C19.7011 35.2748 19.4972 35.7672 19.1341 36.1302C18.771 36.4933 18.2786 36.6973 17.7652 36.6973H14.5481C14.1243 36.6968 13.7124 36.5573 13.3756 36.3002C13.0387 36.043 12.7955 35.6825 12.6833 35.2738C4.55526 36.3414 2.24921 37.7507 2.06416 38.2204C2.06233 38.3544 2.03387 38.4866 1.98047 38.6095C1.92707 38.7323 1.84978 38.8434 1.75309 38.9361C1.65639 39.0288 1.54223 39.1013 1.41724 39.1495C1.29225 39.1977 1.15892 39.2206 1.02501 39.2168Z" fill="#38BCEA"/>
</svg>
