<svg width="45" height="45" viewBox="0 0 45 45" fill="none" xmlns="http://www.w3.org/2000/svg">
<path d="M21.9201 26.655C14.4637 26.655 8.39746 32.7213 8.39746 40.1777C8.39746 40.5411 8.69163 40.8353 9.05507 40.8353H34.7851C35.1486 40.8353 35.4427 40.5411 35.4427 40.1777C35.4427 32.7213 29.3765 26.655 21.9201 26.655ZM9.73022 39.5201C10.073 33.0935 15.4098 27.9702 21.9201 27.9702C28.4304 27.9702 33.7672 33.0935 34.11 39.5201H9.73022Z" fill="#20A0CD"/>
<path d="M21.6968 25.4526C26.0099 25.4526 29.5193 21.9423 29.5193 17.6271C29.5193 16.1028 29.0796 14.6323 28.2523 13.3632V3.66298C28.2523 3.29954 27.9582 3.00537 27.5947 3.00537H15.7998C15.4364 3.00537 15.1422 3.29954 15.1422 3.66298V13.3588C14.3128 14.6306 13.873 16.1041 13.873 17.6271C13.8726 21.9423 17.3825 25.4526 21.6968 25.4526ZM16.457 4.32103H26.9367V13.0659H16.457V4.32103ZM16.0581 14.3807H27.3378C27.9056 15.3649 28.2041 16.478 28.2041 17.6271C28.2037 21.2172 25.2848 24.1374 21.6968 24.1374C18.1081 24.1374 15.1883 21.2168 15.1883 17.6271C15.1883 16.4798 15.489 15.3662 16.0581 14.3807Z" fill="#20A0CD"/>
<path d="M23.9887 8.10839H22.3548V6.47182C22.3548 6.10838 22.0606 5.81421 21.6972 5.81421C21.3337 5.81421 21.0395 6.10838 21.0395 6.47182V8.10839H19.4052C19.0417 8.10839 18.7476 8.40256 18.7476 8.766C18.7476 9.12944 19.0417 9.42361 19.4052 9.42361H21.0395V11.058C21.0395 11.4214 21.3337 11.7156 21.6972 11.7156C22.0606 11.7156 22.3548 11.4214 22.3548 11.058V9.42361H23.9887C24.3521 9.42361 24.6463 9.12944 24.6463 8.766C24.6463 8.40256 24.3517 8.10839 23.9887 8.10839Z" fill="#20A0CD"/>
</svg>
