<svg width="14" height="18" viewBox="0 0 14 18" fill="none" xmlns="http://www.w3.org/2000/svg">
<path d="M7 18.0037C5.73693 16.9263 4.56619 15.7452 3.5 14.4727C1.9 12.5617 8.83662e-07 9.71571 8.83662e-07 7.00371C-0.00141728 4.17126 1.70425 1.6171 4.32107 0.53311C6.93789 -0.550883 9.95007 0.0489528 11.952 2.05271C13.2685 3.36332 14.0059 5.1461 14 7.00371C14 9.71571 12.1 12.5617 10.5 14.4727C9.43382 15.7452 8.26307 16.9263 7 18.0037ZM7 2.00371C4.23995 2.00702 2.00331 4.24366 2 7.00371C2 8.16971 2.527 10.1887 5.035 13.1897C5.65314 13.9278 6.30902 14.6334 7 15.3037C7.69105 14.6342 8.34724 13.9296 8.966 13.1927C11.473 10.1877 12 8.16871 12 7.00371C11.9967 4.24366 9.76006 2.00702 7 2.00371ZM7 10.0037C5.34315 10.0037 4 8.66057 4 7.00371C4 5.34686 5.34315 4.00371 7 4.00371C8.65686 4.00371 10 5.34686 10 7.00371C10 7.79936 9.68393 8.56242 9.12132 9.12503C8.55871 9.68764 7.79565 10.0037 7 10.0037Z" fill="#1A3444"/>
</svg>
