<svg width="26" height="42" viewBox="0 0 26 42" fill="none" xmlns="http://www.w3.org/2000/svg">
<path d="M16.3915 30.3255L23.2786 19.2516C23.3029 19.2127 23.3234 19.1722 23.3401 19.1301C24.5529 17.1482 25.1931 14.8861 25.1931 12.5782C25.1931 5.64248 19.5501 0 12.6133 0C5.67811 0 0.0361636 5.64248 0.0361636 12.5782C0.0361636 14.8888 0.677379 17.1514 1.89126 19.1323C1.90638 19.169 1.92419 19.2046 1.94524 19.2397L8.58786 30.3568C3.40255 31.1265 0 33.2952 0 35.9302C0 39.2745 5.41579 41.7961 12.5971 41.7961C19.7784 41.7961 25.1936 39.2745 25.1936 35.9302C25.1931 33.239 21.708 31.0617 16.3915 30.3255ZM3.33832 18.3934C2.23724 16.6419 1.65539 14.6314 1.65539 12.5787C1.65539 6.53576 6.57084 1.61977 12.6133 1.61977C18.6573 1.61977 23.5739 6.53576 23.5739 12.5787C23.5739 14.6303 22.9925 16.6408 21.892 18.3939C21.8672 18.4333 21.8461 18.4743 21.8294 18.517L14.4727 30.346C14.3286 30.4599 14.2255 30.6213 14.185 30.8091L12.4303 33.6304L3.40686 18.5294C3.38797 18.4824 3.3653 18.4366 3.33832 18.3934ZM12.5965 40.1764C6.12717 40.1764 1.61869 37.9386 1.61869 35.9297C1.61869 33.958 5.53831 32.3593 9.49139 31.8697L11.7205 35.601C11.8652 35.8433 12.1259 35.9928 12.4082 35.995C12.4103 35.995 12.413 35.995 12.4152 35.995C12.6948 35.995 12.9549 35.8503 13.1023 35.6128L15.448 31.8411C20.5426 32.4008 23.5733 34.3223 23.5733 35.9291C23.5738 37.9386 19.0654 40.1764 12.5965 40.1764Z" fill="#20A0CD"/>
<path d="M17.2417 12.5789C17.2417 10.0178 15.1583 7.93384 12.5966 7.93384C10.0356 7.93384 7.95215 10.0178 7.95215 12.5789C7.95215 15.14 10.0356 17.2239 12.5966 17.2239C15.1583 17.2239 17.2417 15.14 17.2417 12.5789ZM9.57084 12.5789C9.57084 10.9105 10.9283 9.55307 12.5961 9.55307C14.265 9.55307 15.6219 10.9105 15.6219 12.5789C15.6219 14.2472 14.2645 15.6047 12.5961 15.6047C10.9283 15.6047 9.57084 14.2472 9.57084 12.5789Z" fill="#20A0CD"/>
</svg>
