<svg width="12" height="12" viewBox="0 0 12 12" fill="none" xmlns="http://www.w3.org/2000/svg">
<path d="M11.2436 11.9951C4.84745 12.0042 -0.00683546 7.09176 7.22515e-06 0.751579C7.22515e-06 0.337533 0.335658 0 0.749705 0H2.72842C3.09995 0 3.41557 0.272987 3.47013 0.640488C3.60088 1.52128 3.85732 2.37877 4.23166 3.18674L4.3087 3.35302C4.41581 3.58423 4.34321 3.85895 4.13584 4.00704C3.52305 4.44465 3.28886 5.32552 3.76625 6.01284C4.36532 6.87535 5.12047 7.63035 5.98279 8.22914C6.67007 8.7064 7.5508 8.47224 7.9884 7.85956C8.13659 7.65209 8.41146 7.57944 8.64281 7.68661L8.80833 7.76328C9.61636 8.13759 10.4739 8.39404 11.3548 8.52477C11.7223 8.57932 11.9952 8.89492 11.9952 9.26646V11.2454C11.9952 11.6595 11.6587 11.9951 11.2446 11.9951L11.2436 11.9951Z" fill="#1A3444"/>
</svg>
