<svg width="67" height="62" viewBox="0 0 67 62" fill="none" xmlns="http://www.w3.org/2000/svg">
<path d="M39.8179 14.7407C39.724 14.7563 39.6282 14.7563 39.5343 14.7407C36.9943 14.0846 34.6366 12.8598 32.6393 11.1589C32.5251 11.0637 32.4316 10.9461 32.3646 10.8134C32.2975 10.6807 32.2584 10.5356 32.2495 10.3872C32.2406 10.2388 32.2622 10.0901 32.3129 9.95034C32.3637 9.81057 32.4425 9.68266 32.5445 9.5745C32.6466 9.46635 32.7697 9.38023 32.9063 9.32143C33.0428 9.26264 33.19 9.23244 33.3387 9.23267C33.4874 9.2329 33.6344 9.26355 33.7708 9.32275C33.9072 9.38196 34.0301 9.46847 34.1318 9.57694C35.8822 10.9922 37.919 12.0106 40.1014 12.5618C40.3506 12.6353 40.5654 12.7954 40.7069 13.0134C40.8485 13.2313 40.9074 13.4926 40.8732 13.7502C40.839 14.0078 40.7138 14.2447 40.5203 14.4181C40.3268 14.5915 40.0777 14.6901 39.8179 14.6959V14.7407Z" fill="#38BCEA"/>
<path d="M43.474 61.2293C43.0959 61.2312 42.7192 61.1809 42.3547 61.08C41.3772 60.7705 40.5281 60.1489 39.9378 59.3106C39.3474 58.4722 39.0483 57.4633 39.0864 56.4386V50.469C39.1893 48.845 38.6489 47.2457 37.5821 46.0169C36.5153 44.7881 35.0077 44.0285 33.3853 43.9024C30.2513 43.9024 27.6843 46.8872 27.6843 50.469V56.4386C27.7224 57.4633 27.4232 58.4722 26.8329 59.3106C26.2425 60.1489 25.3935 60.7705 24.4159 61.08C23.5265 61.3228 22.5815 61.2625 21.7302 60.9084C20.8789 60.5544 20.1698 59.9269 19.7148 59.125C10.9992 45.0217 10.9395 23.4862 10.9395 22.5758C10.9395 13.6214 17.4464 6.33838 25.4457 6.33838C28.3096 6.34375 31.0949 7.27567 33.3853 8.99487C35.6768 7.27758 38.4614 6.34589 41.325 6.33838C49.3243 6.33838 55.8312 13.6214 55.8312 22.5758C55.8312 23.4862 55.8312 44.962 47.0558 59.125C46.6918 59.7556 46.1705 60.281 45.5427 60.6499C44.9149 61.0187 44.2021 61.2184 43.474 61.2293ZM33.3853 41.6638C37.7282 41.6638 41.2653 45.5888 41.2653 50.4093V56.379C41.221 56.9297 41.3632 57.4794 41.6691 57.9396C41.9749 58.3998 42.4267 58.7437 42.9517 58.9161C43.385 59.0364 43.8467 59.0025 44.2577 58.8201C44.6688 58.6377 45.0037 58.3182 45.2052 57.9161C53.5926 44.3501 53.6523 22.7251 53.6523 22.5161C53.6523 14.7556 48.1154 8.4576 41.325 8.4576C38.6679 8.46912 36.1018 9.42678 34.0868 11.1589C33.8879 11.3187 33.6405 11.4059 33.3853 11.4059C33.1302 11.4059 32.8827 11.3187 32.6839 11.1589C30.6689 9.42678 28.1028 8.46912 25.4457 8.4576C18.6552 8.4576 13.1184 14.7556 13.1184 22.5161C13.1184 22.7251 13.1184 44.3501 21.5654 57.9161C21.7691 58.3162 22.1043 58.634 22.5147 58.8161C22.9251 58.9982 23.3856 59.0335 23.819 58.9161C24.3468 58.7464 24.8018 58.4036 25.1106 57.9432C25.4194 57.4828 25.5637 56.9316 25.5203 56.379V50.4093C25.5203 45.544 29.0424 41.619 33.3853 41.619V41.6638Z" fill="#38BCEA"/>
<path d="M33.3853 33.8736C21.834 33.8736 0 32.3811 0 26.8294C0 25.9339 0 23.2177 11.9393 21.2925C12.0798 21.267 12.2239 21.2701 12.3631 21.3017C12.5024 21.3333 12.6337 21.3927 12.7494 21.4764C12.8651 21.56 12.9627 21.6661 13.0364 21.7884C13.11 21.9107 13.1582 22.0466 13.178 22.188C13.2255 22.4729 13.1578 22.7651 12.9899 23.0002C12.822 23.2353 12.5675 23.3941 12.2825 23.4416C3.93996 24.7848 2.23862 26.4264 2.23862 26.8294C2.23862 28.4859 13.2675 31.6946 33.4599 31.6946C53.6522 31.6946 64.6811 28.4859 64.6811 26.8294C64.6811 26.4563 62.9798 24.7848 54.6372 23.4416C54.4945 23.4198 54.3576 23.3699 54.2344 23.2948C54.1112 23.2196 54.0041 23.1208 53.9194 23.0039C53.8347 22.887 53.7741 22.7545 53.7411 22.614C53.708 22.4735 53.7032 22.3279 53.727 22.1855C53.7507 22.0431 53.8025 21.9069 53.8793 21.7847C53.9561 21.6626 54.0564 21.5568 54.1744 21.4738C54.2924 21.3907 54.4258 21.3319 54.5667 21.3008C54.7077 21.2696 54.8534 21.2669 54.9954 21.2925C66.8601 23.2177 66.8601 25.9339 66.8601 26.8294C66.7855 32.3961 44.9365 33.8736 33.3853 33.8736Z" fill="#38BCEA"/>
<path d="M11.6258 48.6333C11.288 48.652 10.9499 48.6021 10.6319 48.4867C10.3138 48.3713 10.0224 48.1927 9.77523 47.9617C8.80516 46.9916 8.05895 44.9023 12.7601 37.873C12.8356 37.7474 12.9358 37.6383 13.0546 37.5523C13.1733 37.4663 13.3082 37.4051 13.4512 37.3725C13.5941 37.3399 13.7422 37.3365 13.8865 37.3624C14.0308 37.3884 14.1684 37.4432 14.291 37.5236C14.4136 37.604 14.5187 37.7083 14.6 37.8303C14.6814 37.9523 14.7373 38.0895 14.7643 38.2336C14.7914 38.3777 14.7891 38.5258 14.7575 38.669C14.726 38.8121 14.6659 38.9475 14.5808 39.0669C11.0736 44.35 11.1482 46.2156 11.3572 46.4245C12.5213 47.6035 22.5951 42.0816 36.8774 27.7992C51.1598 13.5168 56.6668 3.44303 55.5027 2.27895C55.2192 1.99539 52.2642 2.15956 44.0709 8.41277C43.8417 8.55942 43.5659 8.61501 43.2978 8.56858C43.0297 8.52215 42.7886 8.37705 42.6221 8.16186C42.4556 7.94668 42.3756 7.67698 42.3979 7.4058C42.4202 7.13461 42.5432 6.88159 42.7426 6.6965C54.2193 -2.07888 56.3385 0.0403439 57.0399 0.726854C60.9799 4.66682 46.593 21.143 38.4146 29.3215C31.1466 36.5447 17.4462 48.6333 11.6258 48.6333Z" fill="#38BCEA"/>
<path d="M55.1144 48.693C53.5175 48.693 50.8162 47.7229 45.951 44.3799C39.676 39.8832 33.8037 34.8498 28.4002 29.3364C22.8958 23.9299 17.863 18.0633 13.3567 11.8006C8.01382 4.0251 8.74511 1.77156 9.77488 0.741792C10.4763 0.0403579 12.5955 -2.07887 24.0722 6.71144C24.1996 6.79297 24.3086 6.90014 24.3924 7.02613C24.4761 7.15212 24.5327 7.29416 24.5585 7.44321C24.5843 7.59226 24.5788 7.74506 24.5423 7.89187C24.5058 8.03868 24.4392 8.17629 24.3466 8.29592C24.254 8.41555 24.1375 8.51459 24.0046 8.58673C23.8716 8.65886 23.7251 8.70251 23.5743 8.71491C23.4235 8.72731 23.2718 8.70818 23.1289 8.65873C22.9859 8.60928 22.8548 8.5306 22.7439 8.42771C14.5655 2.1745 11.6105 1.99541 11.3121 2.29389C11.0136 2.59237 11.0434 4.62206 15.1476 10.5768C19.5786 16.7368 24.5318 22.5039 29.9523 27.8141C44.2347 42.0965 54.2935 47.6185 55.4576 46.4394C55.6665 46.2305 55.7412 44.365 52.2489 39.0819C52.1503 38.9643 52.0776 38.8271 52.0356 38.6795C51.9936 38.5318 51.9834 38.3769 52.0055 38.225C52.0275 38.0731 52.0814 37.9276 52.1637 37.7979C52.246 37.6683 52.3547 37.5575 52.4827 37.4729C52.6108 37.3882 52.7553 37.3316 52.9068 37.3067C53.0582 37.2818 53.2133 37.2891 53.3617 37.3283C53.5101 37.3675 53.6486 37.4376 53.768 37.534C53.8875 37.6305 53.9852 37.7511 54.0547 37.8879C58.7111 44.9172 57.9649 47.0066 57.0396 47.9766C56.7897 48.2284 56.4882 48.4229 56.1557 48.5466C55.8233 48.6702 55.468 48.7202 55.1144 48.693Z" fill="#38BCEA"/>
</svg>
