<svg width="59" height="61" viewBox="0 0 59 61" fill="none" xmlns="http://www.w3.org/2000/svg">
<path d="M29.786 9.92705C29.6108 9.97138 29.4249 9.98877 29.2465 9.95916C26.7016 9.30611 24.3399 8.07903 22.3426 6.37198C22.1617 6.17897 22.0611 5.9242 22.0615 5.65962C22.0619 5.39505 22.1632 5.14059 22.3448 4.94813C22.5264 4.75568 22.7745 4.63973 23.0386 4.62393C23.3027 4.60812 23.5629 4.69366 23.7661 4.86308C25.535 6.31283 27.6 7.35748 29.8159 7.92357C29.9473 7.95819 30.0705 8.01859 30.1783 8.10125C30.2862 8.18392 30.3765 8.2872 30.444 8.40509C30.5116 8.52298 30.555 8.65312 30.5718 8.78796C30.5886 8.92279 30.5785 9.05961 30.5419 9.19047C30.4793 9.41345 30.345 9.60958 30.1597 9.74854C30.0475 9.83272 29.9203 9.89307 29.786 9.92705Z" fill="white"/>
<path d="M38.8695 60.3208C38.6648 60.3631 38.4472 60.379 38.2426 60.3364C38.031 60.2743 37.8455 60.1447 37.7144 59.9674C37.5833 59.7901 37.5139 59.5747 37.5166 59.3542C37.5166 59.2688 37.3173 50.7137 28.9757 40.4931C28.802 40.2817 28.7194 40.0099 28.7461 39.7376C28.7728 39.4653 28.9066 39.2148 29.118 39.0411C29.3294 38.8675 29.6012 38.7849 29.8735 38.8116C30.1458 38.8383 30.3963 38.9721 30.57 39.1835C32.1853 41.0415 33.6176 43.0395 34.8526 45.149C37.113 49.01 43.0654 49.6018 43.7891 45.1867C44.5903 40.2991 43.6125 36.7382 42.8831 34.8846C42.3946 33.6611 42.2374 32.3305 42.4276 31.0269C42.6127 29.8169 42.7835 28.5643 42.9258 27.3258C42.9405 27.1893 42.9821 27.0571 43.0481 26.9367C43.1142 26.8163 43.2035 26.7103 43.3108 26.6246C43.4182 26.539 43.5414 26.4755 43.6734 26.4377C43.8055 26.4 43.9436 26.3888 44.08 26.4048C44.2164 26.4208 44.3482 26.4636 44.468 26.5309C44.5877 26.5981 44.6929 26.6884 44.7775 26.7966C44.8621 26.9047 44.9244 27.0286 44.9609 27.161C44.9973 27.2933 45.0072 27.4316 44.9899 27.5678C44.8475 28.8347 44.6767 30.1016 44.4774 31.3401C44.3347 32.2792 44.4529 33.2394 44.8191 34.1159C46.2425 37.6461 48.5343 47.2262 39.4668 59.9521C39.3596 60.0878 39.2199 60.1942 39.0606 60.2614C38.9988 60.2875 38.9347 60.3074 38.8695 60.3208Z" fill="white"/>
<path d="M7.55253 60.3364C7.38734 60.336 7.22469 60.2957 7.07846 60.2188C6.93223 60.142 6.80673 60.031 6.71266 59.8952C-2.36916 47.1692 -0.0773494 37.5892 1.34613 34.0589C1.70054 33.1793 1.81357 32.221 1.67354 31.2831C0.982843 26.8307 0.597595 22.3362 0.520511 17.8312C0.534746 8.84903 7.04007 1.56079 15.0685 1.56079C16.6867 1.56884 18.2792 1.86982 19.7724 2.43892C21.8539 3.23224 24.2546 3.23224 26.3361 2.43892C27.8293 1.86982 29.4218 1.56884 31.04 1.56079C34.4358 1.59271 37.6983 2.88655 40.193 5.19067C40.294 5.28414 40.3755 5.39658 40.433 5.52156C40.4905 5.64654 40.5228 5.78162 40.5281 5.91909C40.5334 6.05656 40.5115 6.19373 40.4638 6.32276C40.4161 6.45179 40.3434 6.57015 40.25 6.6711C40.1565 6.77204 40.044 6.85359 39.9191 6.91108C39.7941 6.96857 39.659 7.00089 39.5215 7.00617C39.3841 7.01146 39.2469 6.98962 39.1179 6.9419C38.9888 6.89417 38.8705 6.82151 38.7695 6.72804C36.7487 4.80911 34.0867 3.70997 31.3008 3.6442C28.5148 3.57843 25.8039 4.55073 23.6948 6.37217C23.5111 6.53142 23.2761 6.61908 23.0329 6.61908C22.7898 6.61908 22.5547 6.53142 22.371 6.37217C20.3305 4.6271 17.7391 3.6591 15.0543 3.63908C8.17885 3.63908 2.5988 10.0163 2.5988 17.8739C2.67147 22.2741 3.04721 26.6641 3.72335 31.0127C3.92044 32.3161 3.7631 33.6486 3.26784 34.8703C2.23252 37.4709 0.674301 43.7106 4.60842 52.2957C5.31597 53.8397 7.55314 53.5047 8.13615 51.9094C8.17809 51.7752 8.24682 51.651 8.33817 51.5441C8.42952 51.4373 8.54161 51.3501 8.66763 51.2878C8.79365 51.2256 8.931 51.1895 9.07136 51.1819C9.21172 51.1742 9.35218 51.1951 9.48423 51.2433C9.61628 51.2915 9.73718 51.366 9.83961 51.4622C9.94204 51.5585 10.0239 51.6746 10.0802 51.8034C10.1365 51.9322 10.166 52.0711 10.1671 52.2116C10.1681 52.3522 10.1407 52.4915 10.0863 52.6212C9.24784 54.772 8.73914 57.0372 8.57744 59.34C8.57561 59.5594 8.50439 59.7726 8.37398 59.949C8.24357 60.1255 8.06066 60.2561 7.85146 60.3222C7.75356 60.3454 7.65219 60.3503 7.55253 60.3364Z" fill="white"/>
<path d="M-nan -nanL23.0541 60.3364C22.8907 60.3359 22.7298 60.2968 22.5843 60.2225C20.0229 58.6217 17.9192 56.3856 16.4776 53.7314C16.3402 53.4944 16.3005 53.2133 16.3669 52.9475C16.4333 52.6818 16.6007 52.4523 16.8334 52.3079C16.9498 52.2361 17.0794 52.1883 17.2145 52.1674C17.3496 52.1464 17.4875 52.1527 17.6202 52.1859C17.7528 52.219 17.8775 52.2784 17.9869 52.3605C18.0962 52.4425 18.188 52.5457 18.2569 52.6638C18.858 53.7192 19.5656 54.7064 20.3666 55.6108C21.8089 57.239 24.2923 57.2299 25.7077 55.5783C27.6386 53.3252 30.0345 49.489 31.5096 43.3115C31.5837 43.0562 31.7529 42.8391 31.9823 42.7047C32.2116 42.5704 32.4838 42.5291 32.7427 42.5892C33.0016 42.6494 33.2276 42.8065 33.3742 43.0282C33.5208 43.25 33.5769 43.5194 33.5309 43.7813C30.4847 56.5926 23.8085 60.0801 23.5665 60.2225C23.4069 60.2998 23.2314 60.3388 23.0541 60.3364L-nan -nanZ" fill="white"/>
<path d="M-nan -nanL14.1574 51.4681C13.7214 51.4697 13.2894 51.3851 12.8862 51.219C12.4831 51.0528 12.1169 50.8085 11.8086 50.5001L7.70902 46.4289C7.08924 45.8072 6.74121 44.9652 6.74121 44.0873C6.74121 43.2094 7.08924 42.3674 7.70902 41.7457L12.8763 36.5784C13.5004 35.9578 14.3448 35.6094 15.225 35.6094C16.1052 35.6094 16.9496 35.9578 17.5738 36.5784L21.6307 40.6496C22.2513 41.2737 22.5997 42.1181 22.5997 42.9983C22.5997 43.8785 22.2513 44.7229 21.6307 45.3471L16.4777 50.5001C15.8621 51.116 15.0282 51.4639 14.1574 51.4681L-nan -nanZM15.2535 37.6887C15.0901 37.6861 14.9278 37.7163 14.7762 37.7774C14.6246 37.8385 14.4868 37.9294 14.3709 38.0446L9.21791 43.2118C9.09948 43.3248 9.00521 43.4607 8.9408 43.6112C8.87638 43.7616 8.84317 43.9236 8.84317 44.0873C8.84317 44.251 8.87638 44.413 8.9408 44.5634C9.00521 44.7139 9.09948 44.8497 9.21791 44.9627L13.2748 49.0339C13.5095 49.2669 13.8267 49.3976 14.1574 49.3976C14.4881 49.3976 14.8053 49.2669 15.04 49.0339L20.193 43.8809C20.4259 43.6462 20.5567 43.329 20.5567 42.9983C20.5567 42.6677 20.4259 42.3504 20.193 42.1158L16.136 38.0446C16.0153 37.9279 15.8727 37.8363 15.7163 37.7752C15.5599 37.7141 15.3929 37.6847 15.225 37.6887H15.2535Z" fill="white"/>
<path d="M-nan -nanL16.677 49.6746C16.4873 49.676 16.3006 49.6269 16.1361 49.5322L7.25357 44.2369C7.01572 44.0972 6.84311 43.8687 6.7737 43.6018C6.7043 43.3348 6.74377 43.0512 6.88346 42.8134C7.02314 42.5755 7.25159 42.4029 7.51855 42.3335C7.7855 42.2641 8.0691 42.3036 8.30694 42.4433L17.2037 47.7529C17.3218 47.8218 17.425 47.9136 17.507 48.0229C17.5891 48.1323 17.6485 48.257 17.6816 48.3896C17.7148 48.5223 17.7211 48.6602 17.7001 48.7953C17.6792 48.9304 17.6314 49.06 17.5596 49.1764C17.4694 49.3298 17.3402 49.4566 17.1853 49.5441C17.0303 49.6316 16.855 49.6766 16.677 49.6746L-nan -nanZ" fill="white"/>
<path d="M19.0258 47.5392C19.0258 47.5314 19.0195 47.525 19.0116 47.5247C18.83 47.519 18.6531 47.4652 18.4991 47.3685L9.68182 42.1221C9.46777 41.9947 9.244 41.8629 9.11924 41.6473C9.05861 41.5425 9.01627 41.4271 8.99506 41.306C8.95212 41.0607 8.9987 40.8081 9.12632 40.5943C9.25394 40.3804 9.4541 40.2195 9.69038 40.1409C9.80823 40.1016 9.93116 40.0841 10.0534 40.0882C10.2999 40.0965 10.52 40.2291 10.7319 40.3555L19.5524 45.6176C19.7495 45.733 19.9031 45.91 19.9895 46.1215C20.0758 46.3329 20.0901 46.5668 20.0302 46.7872C19.9702 47.0076 19.8394 47.202 19.6578 47.3405C19.4801 47.4762 19.2634 47.5508 19.0401 47.5535C19.0322 47.5536 19.0258 47.5471 19.0258 47.5392Z" fill="white"/>
<path d="M-nan -nanL21.1613 45.2188C20.9715 45.2203 20.7848 45.1711 20.6204 45.0765L11.6951 39.7526C11.4958 39.5982 11.3595 39.3765 11.3115 39.129C11.2635 38.8815 11.3071 38.6249 11.4343 38.4072C11.5615 38.1895 11.7634 38.0254 12.0026 37.9456C12.2418 37.8657 12.5018 37.8756 12.7343 37.9733L21.6595 43.2971C21.7776 43.366 21.8808 43.4578 21.9628 43.5672C22.0449 43.6765 22.1043 43.8012 22.1374 43.9338C22.1706 44.0665 22.1769 44.2044 22.1559 44.3395C22.135 44.4747 22.0872 44.6042 22.0154 44.7206C21.9276 44.8698 21.803 44.994 21.6534 45.0813C21.5039 45.1685 21.3344 45.2159 21.1613 45.2188L-nan -nanZ" fill="white"/>
<path d="M-nan -nanL18.8691 40.3932C18.5913 40.3878 18.3262 40.2756 18.1289 40.0801C17.9508 39.8858 17.8521 39.6319 17.8521 39.3683C17.8521 39.1048 17.9508 38.8509 18.1289 38.6566L20.5296 36.2559C20.8259 35.9595 21.1629 35.637 21.5808 35.6676C21.5989 35.6689 21.617 35.6707 21.6351 35.673C21.864 35.7019 22.0767 35.8061 22.2398 35.9692C22.4029 36.1323 22.5071 36.345 22.536 36.5738C22.5383 36.5919 22.5401 36.61 22.5414 36.6281C22.572 37.0461 22.2494 37.383 21.9531 37.6793L19.5524 40.0801C19.3725 40.2672 19.1283 40.3791 18.8691 40.3932L-nan -nanZ" fill="white"/>
<path d="M24.3355 40.0801C24.062 40.0739 23.8016 39.9616 23.6095 39.7669L18.428 34.6139C18.2469 34.4212 18.146 34.1666 18.146 33.9021C18.146 33.6376 18.2469 33.3831 18.428 33.1904L28.7625 21.2758C32.178 17.3162 35.9052 13.6366 39.9084 10.2723L48.2358 3.29723C48.4388 3.12859 48.6978 3.04233 48.9614 3.05551C49.225 3.06869 49.474 3.18036 49.6593 3.3684L54.8123 8.52141C54.9934 8.71412 55.0943 8.96866 55.0943 9.23315C55.0943 9.49765 54.9934 9.75219 54.8123 9.9449L47.8514 18.2865C44.5163 22.3056 40.8653 26.0518 36.9333 29.4893L25.033 39.8238C24.8393 39.9911 24.5914 40.0822 24.3355 40.0801ZM22.3519 31.8095C21.3677 32.949 21.43 34.655 22.4947 35.7197C23.5631 36.7881 25.2764 36.8466 26.4152 35.8536L35.5098 27.9235C39.3694 24.5621 42.9582 20.902 46.2429 16.9769L50.8742 11.4442C51.8544 10.2733 51.778 8.54764 50.6982 7.46786C49.6186 6.38823 47.8933 6.31172 46.7223 7.29155L41.2038 11.9093C37.2717 15.1914 33.611 18.7855 30.2572 22.6566L22.3519 31.8095Z" fill="white"/>
<path d="M-nan -nanL55.0261 10.9984C54.7938 10.9996 54.5637 10.9549 54.3487 10.867C54.1337 10.7791 53.9383 10.6496 53.7734 10.4859L47.7379 4.45036C47.5726 4.28629 47.4414 4.09114 47.3519 3.87615C47.2624 3.66115 47.2163 3.43058 47.2163 3.1977C47.2163 2.96481 47.2624 2.73424 47.3519 2.51924C47.4414 2.30425 47.5726 2.1091 47.7379 1.94503L49.1613 0.521546C49.3254 0.356276 49.5206 0.225106 49.7356 0.135594C49.9505 0.0460832 50.1811 0 50.414 0C50.6469 0 50.8775 0.0460832 51.0925 0.135594C51.3074 0.225106 51.5026 0.356276 51.6667 0.521546L57.7022 6.55712C58.0317 6.88793 58.2167 7.33579 58.2167 7.80267C58.2167 8.26954 58.0317 8.7174 57.7022 9.04821L56.1934 10.5571C55.871 10.8414 55.4559 10.9983 55.0261 10.9984L-nan -nanZM49.9716 2.6453C49.6687 2.92394 49.657 3.39811 49.9458 3.69131L54.4943 8.30907C54.7874 8.60656 55.2666 8.60837 55.5619 8.3131C55.8556 8.0194 55.8556 7.54322 55.5619 7.24952L50.9787 2.66627C50.7029 2.39046 50.2586 2.38121 49.9716 2.6453Z" fill="white"/>
</svg>
