<svg width="16" height="16" viewBox="0 0 16 16" fill="none" xmlns="http://www.w3.org/2000/svg">
<path d="M14.0331 15.4327H1.39868C0.626268 15.4317 0.000472712 14.8055 0 14.0331V1.39868C0.000945595 0.626602 0.626602 0.000945595 1.39868 0H14.0323C14.8046 0.000943045 15.4308 0.626325 15.4327 1.39868V14.0331C15.4317 14.8057 14.8057 15.4317 14.0331 15.4327ZM3.14488 5.71657L2.81195 6.94363H3.90858L3.1998 9.83194C3.14772 10.0604 3.11897 10.2936 3.11399 10.5279C3.07411 10.9049 3.20904 11.2794 3.48021 11.5444C3.75138 11.8094 4.12894 11.9356 4.50495 11.8871C5.30277 11.8524 6.01942 11.3889 6.37815 10.6754L6.09756 11.791H7.65155L8.53795 8.23762C8.76105 7.32805 9.20039 6.86469 9.84138 6.86469C10.0691 6.84769 10.2929 6.93159 10.4533 7.09415C10.6137 7.25672 10.6946 7.48153 10.6746 7.70904C10.6769 7.87804 10.6522 8.04632 10.6016 8.20759L10.1486 9.8431C10.0832 10.0696 10.0503 10.3042 10.0508 10.5399C10.0262 10.9163 10.1703 11.2843 10.4441 11.5439C10.7178 11.8035 11.0928 11.928 11.4675 11.8836C12.3513 11.8836 12.9674 11.283 13.3012 10.098L12.6945 9.86369C12.4577 10.5407 12.2054 10.8702 11.9222 10.8702C11.7154 10.8702 11.6065 10.7269 11.6065 10.4549C11.6123 10.3122 11.6339 10.1707 11.6708 10.0327L12.117 8.43841C12.2182 8.11038 12.2703 7.76916 12.2715 7.42587C12.3225 6.96972 12.1789 6.51318 11.8759 6.16838C11.573 5.82359 11.1387 5.62248 10.6797 5.61445C9.78031 5.73729 9.00374 6.306 8.61518 7.1264L8.92409 5.73888H6.53175L6.19624 6.9402H7.3066L6.62013 9.67577C6.38042 10.3478 5.76513 10.8138 5.05327 10.8625C5.02682 10.8629 5.0004 10.8609 4.97432 10.8565C4.76581 10.8076 4.64482 10.7278 4.64482 10.4686C4.64968 10.2544 4.68139 10.0417 4.73921 9.83538L5.78264 5.71657H3.14488ZM5.15709 3.0033C4.82294 3.0033 4.51417 3.18157 4.34709 3.47096C4.18001 3.76034 4.18001 4.11688 4.34709 4.40627C4.51417 4.69566 4.82294 4.87393 5.15709 4.87393V4.85247C5.40726 4.8545 5.64812 4.75767 5.82726 4.58304C6.0029 4.40961 6.101 4.17257 6.09927 3.92574C6.09268 3.41133 5.67153 2.99901 5.15709 3.0033Z" fill="#2E3A59"/>
</svg>
