<svg width="16" height="16" viewBox="0 0 16 16" fill="none" xmlns="http://www.w3.org/2000/svg">
<path d="M7.72277 15.4764C5.61188 15.4764 5.36304 15.4653 4.53927 15.4292C3.89689 15.4081 3.26281 15.2775 2.66436 15.0431C1.62891 14.6401 0.810153 13.8211 0.407591 12.7855C0.182177 12.1848 0.0605962 11.5503 0.0480528 10.9088C0 10.0868 0 9.81736 0 7.72277C0 5.60587 0.0111551 5.35874 0.0480528 4.53927C0.0608706 3.89873 0.182447 3.26502 0.407591 2.66521C0.809716 1.62824 1.62981 0.808464 2.66693 0.406733C3.26643 0.180372 3.9003 0.0584736 4.54099 0.0463366C5.36046 0 5.6299 0 7.72277 0C9.85082 0 10.0954 0.0111551 10.9063 0.0463366C11.5486 0.0585786 12.1842 0.180464 12.7855 0.406733C13.8223 0.80892 14.6422 1.62854 15.0448 2.66521C15.274 3.27376 15.3963 3.91738 15.4061 4.56759C15.4541 5.38964 15.4541 5.65822 15.4541 7.75195C15.4541 9.84567 15.4421 10.1203 15.4061 10.9329C15.3933 11.5749 15.2714 12.2101 15.0457 12.8112C14.6421 13.8475 13.8221 14.6669 12.7855 15.0697C12.185 15.2947 11.5508 15.4163 10.9097 15.4292C10.0902 15.4764 9.82165 15.4764 7.72277 15.4764ZM7.6936 1.35835C5.59472 1.35835 5.37676 1.36865 4.55729 1.40554C4.06817 1.41202 3.58378 1.50229 3.12515 1.67241C2.44791 1.93156 1.91201 2.46527 1.6501 3.14145C1.47866 3.60507 1.38839 4.09477 1.38323 4.58904C1.33776 5.42053 1.33776 5.63848 1.33776 7.72277C1.33776 9.78218 1.34548 10.0319 1.38323 10.8582C1.39092 11.3475 1.48114 11.832 1.6501 12.2912C1.91239 12.967 2.4482 13.5003 3.12515 13.7594C3.58346 13.9307 4.06806 14.021 4.55729 14.0263C5.38792 14.0743 5.60673 14.0743 7.6936 14.0743C9.79848 14.0743 10.0164 14.064 10.829 14.0263C11.3185 14.0203 11.8033 13.93 12.262 13.7594C12.9352 13.498 13.4676 12.9659 13.7294 12.2929C13.9005 11.8289 13.9907 11.339 13.9962 10.8445H14.0057C14.0426 10.0242 14.0426 9.80534 14.0426 7.70904C14.0426 5.61274 14.0331 5.39221 13.9962 4.57274C13.9885 4.08402 13.8983 3.60011 13.7294 3.14145C13.4682 2.46749 12.9357 1.93438 12.262 1.67241C11.8034 1.50143 11.3185 1.41114 10.829 1.40554C9.99927 1.35835 9.78218 1.35835 7.6936 1.35835ZM7.72277 11.6863C6.11814 11.6873 4.67092 10.7216 4.05605 9.2394C3.44119 7.75725 3.77979 6.05065 4.91394 4.91551C6.04809 3.78038 7.7544 3.4403 9.23709 4.05388C10.7198 4.66747 11.6868 6.11385 11.6871 7.71848C11.6848 9.90751 9.9118 11.682 7.72277 11.6863ZM7.72277 5.14251C6.30105 5.14251 5.14851 6.29504 5.14851 7.71676C5.14851 9.13849 6.30105 10.291 7.72277 10.291C9.14449 10.291 10.297 9.13849 10.297 7.71676C10.2937 6.29641 9.14312 5.14581 7.72277 5.14251ZM11.8416 4.5307C11.3314 4.5288 10.9191 4.11417 10.92 3.60397C10.9209 3.09377 11.3348 2.68067 11.845 2.68067C12.3552 2.68067 12.7691 3.09376 12.77 3.60396C12.7703 3.85011 12.6725 4.08622 12.4982 4.26012C12.324 4.43401 12.0877 4.53138 11.8416 4.5307Z" fill="#2E3A59"/>
</svg>
