<svg width="29" height="40" viewBox="0 0 29 40" fill="none" xmlns="http://www.w3.org/2000/svg">
<path d="M28.3359 19.4499H23.9308L22.2255 12.3636C22.1575 12.0805 21.9041 11.8809 21.613 11.8809H7.69916L5.45609 0.50803C5.38929 0.168986 5.06117 -0.0520014 4.72213 0.0105977L0.514545 0.796658C0.17256 0.860517 -0.0530489 1.1899 0.0108106 1.53188L4.30074 24.5079C4.34485 24.7452 4.52131 24.9368 4.7549 25.0002C4.80952 25.015 4.86539 25.0225 4.92043 25.0225C4.98513 25.0225 5.04773 25.0095 5.10865 24.9902H17.176V33.9742H9.07718C8.72889 33.9742 8.44699 34.2565 8.44699 34.6044V38.7926C8.44699 39.1405 8.72889 39.4228 9.07718 39.4228H26.5318C26.8797 39.4228 27.162 39.1405 27.162 38.7926V34.6044C27.162 34.2565 26.8797 33.9742 26.5318 33.9742H18.4364V24.9897H28.3354C28.6833 24.9897 28.9656 24.7074 28.9656 24.3596V20.0801C28.9661 19.7318 28.6837 19.4499 28.3359 19.4499ZM25.9016 38.1624H9.70737V35.2346H25.9016V38.1624ZM21.1168 13.1413L22.6347 19.4499H9.1923L7.94787 13.1413H21.1168ZM1.36572 1.91966L4.34023 1.36425L7.99619 19.899L5.30065 22.9954L1.36572 1.91966ZM27.7057 23.7294H6.3329L8.96122 20.7099H27.7057V23.7294Z" fill="#20A0CD"/>
</svg>
