<svg width="15" height="16" viewBox="0 0 15 16" fill="none" xmlns="http://www.w3.org/2000/svg">
<path d="M7.66717 6.26409V9.22534H11.7791C11.3964 11.1071 9.79437 12.1883 7.66717 12.1883C5.18949 12.1542 3.19883 10.136 3.19883 7.65805C3.19883 5.18013 5.18949 3.16188 7.66717 3.12778C8.69706 3.12655 9.69524 3.48395 10.4903 4.13861L12.7213 1.90758C10.1621 -0.342257 6.42467 -0.631631 3.5497 1.19747C0.674729 3.02657 -0.646797 6.53456 0.306729 9.80593C1.26026 13.0773 4.25967 15.3258 7.66717 15.3238C11.5002 15.3238 14.9858 12.5358 14.9858 7.65762C14.9799 7.18793 14.9223 6.72033 14.8142 6.26323L7.66717 6.26409Z" fill="#2E3A59"/>
</svg>
