<svg width="77" height="79" viewBox="0 0 77 79" fill="none" xmlns="http://www.w3.org/2000/svg">
<path d="M56.5009 27.4059C56.2728 27.4077 56.0484 27.3486 55.8507 27.2348C53.839 26.031 52.1205 24.3943 50.82 22.4437C50.7367 22.3022 50.6822 22.1456 50.6595 21.983C50.6368 21.8203 50.6463 21.6548 50.6877 21.4959C50.729 21.337 50.8012 21.1877 50.9003 21.0568C50.9993 20.9258 51.1232 20.8156 51.2649 20.7326C51.4041 20.6439 51.5599 20.5845 51.7228 20.558C51.8857 20.5315 52.0523 20.5385 52.2125 20.5785C52.3726 20.6185 52.5229 20.6908 52.6542 20.7908C52.7854 20.8909 52.895 21.0166 52.976 21.1604C54.0734 22.7591 55.5035 24.1016 57.1683 25.0959C57.4486 25.2693 57.6491 25.5464 57.726 25.8669C57.803 26.1874 57.7501 26.5253 57.5789 26.807C57.4704 26.9952 57.3128 27.1504 57.1229 27.2559C56.933 27.3614 56.718 27.4132 56.5009 27.4059Z" fill="#38BCEA"/>
<path d="M48.9547 67.4458C48.2413 67.4385 47.5434 67.2374 46.9356 66.864C46.1407 66.3269 45.5432 65.5446 45.2342 64.6364C44.9253 63.7281 44.9219 62.7438 45.2244 61.8334L46.6789 56.7C47.1069 55.3223 47.0094 53.8349 46.4051 52.5249C46.1497 51.9559 45.7744 51.4487 45.3048 51.0382C44.8352 50.6277 44.2825 50.3235 43.6844 50.1465C43.0824 49.9813 42.4521 49.9463 41.8355 50.0437C41.2189 50.141 40.6301 50.3686 40.1082 50.7111C38.8935 51.5096 38.0162 52.7282 37.6442 54.1334L36.1897 59.2667C35.9571 60.1997 35.4239 61.0302 34.6725 61.6301C33.921 62.23 32.9931 62.566 32.0317 62.5863C31.157 62.5834 30.3085 62.2865 29.6227 61.7435C28.9369 61.2004 28.4535 60.4426 28.2502 59.5918C24.3146 45.5264 29.5164 27.2689 29.7389 26.4989C31.9633 18.7988 39.3724 14.1617 46.2682 16.2322C48.6693 16.9293 50.7891 18.3664 52.3256 20.3388C54.68 19.4903 57.2411 19.4005 59.6491 20.0822C61.337 20.5857 62.8976 21.4449 64.2257 22.6019C65.5539 23.7588 66.6189 25.1868 67.3491 26.7897C68.9209 30.1969 69.1947 34.0606 68.1191 37.6553C67.8967 38.4253 62.5922 56.6487 51.778 66.4534C50.9961 67.129 49.9874 67.4836 48.9547 67.4458ZM42.4867 47.5284C43.1059 47.5284 43.7221 47.6148 44.3175 47.7851C45.2559 48.0647 46.1233 48.5424 46.8613 49.1859C47.5993 49.8294 48.1906 50.6238 48.5953 51.5153C49.4702 53.366 49.6287 55.4752 49.0402 57.4358L47.5687 62.5691C47.4199 62.9633 47.4064 63.3958 47.5303 63.7985C47.6542 64.2012 47.9085 64.5512 48.2531 64.7936C48.5293 64.9403 48.8458 64.993 49.1546 64.9436C49.4634 64.8942 49.7476 64.7454 49.9642 64.5198C60.2309 55.1771 65.5354 37.142 65.5867 36.8853C66.4932 33.8753 66.268 30.6377 64.9536 27.7822C64.3775 26.4967 63.5303 25.351 62.47 24.4236C61.4097 23.4963 60.1614 22.8091 58.8107 22.4093C56.636 21.7969 54.3148 21.9727 52.2571 22.9055C51.9885 23.0204 51.6884 23.0389 51.4078 22.9578C51.1271 22.8767 50.8831 22.7011 50.7171 22.4606C49.5081 20.5701 47.6728 19.165 45.5324 18.4908C39.9542 16.8824 33.9311 20.7666 32.0831 27.1491C32.0831 27.3202 26.9497 45.4922 30.5944 58.8731C30.6566 59.1983 30.8278 59.4925 31.0798 59.7072C31.3318 59.9218 31.6495 60.0441 31.9804 60.0538C32.3916 60.0181 32.7802 59.8505 33.0885 59.5761C33.3968 59.3018 33.6083 58.9352 33.6915 58.5309L35.146 53.3976C35.6959 51.4234 36.9499 49.719 38.6709 48.6064C39.8306 47.8853 41.1725 47.5112 42.538 47.5284H42.4867Z" fill="#38BCEA"/>
<path d="M41.0155 78.5682C37.1155 78.6337 33.2785 77.5787 29.9603 75.5283C26.6421 73.4779 23.982 70.5184 22.2959 67.001C21.5272 65.1921 20.2495 63.6453 18.6183 62.5487C16.9871 61.4522 15.0726 60.8529 13.1072 60.8239H6.62211C6.44696 60.8445 6.26945 60.8278 6.10122 60.7749C5.933 60.7219 5.77789 60.634 5.64611 60.5168C5.51432 60.3996 5.40886 60.2558 5.33663 60.0949C5.2644 59.934 5.22705 59.7597 5.22705 59.5833C5.22705 59.407 5.2644 59.2326 5.33663 59.0718C5.40886 58.9109 5.51432 58.7671 5.64611 58.6499C5.77789 58.5327 5.933 58.4448 6.10122 58.3918C6.26945 58.3389 6.44696 58.3222 6.62211 58.3428H13.1072C15.5523 58.3664 17.9378 59.1004 19.9732 60.4554C22.0087 61.8103 23.6064 63.7278 24.5717 65.9744C26.1145 69.0098 28.4673 71.559 31.3696 73.3395C34.272 75.1201 37.6105 76.0626 41.0155 76.0626C44.4205 76.0626 47.7591 75.1201 50.6614 73.3395C53.5637 71.559 55.9166 69.0098 57.4593 65.9744C58.4229 63.7265 60.0201 61.8078 62.056 60.4526C64.0918 59.0974 66.4782 58.3643 68.9238 58.3428H75.4089C75.5841 58.3222 75.7616 58.3389 75.9298 58.3918C76.098 58.4448 76.2532 58.5327 76.3849 58.6499C76.5167 58.7671 76.6222 58.9109 76.6944 59.0718C76.7666 59.2326 76.804 59.407 76.804 59.5833C76.804 59.7597 76.7666 59.934 76.6944 60.0949C76.6222 60.2558 76.5167 60.3996 76.3849 60.5168C76.2532 60.634 76.098 60.7219 75.9298 60.7749C75.7616 60.8278 75.5841 60.8445 75.4089 60.8239H68.9238C66.9591 60.8645 65.0473 61.4681 63.4155 62.5631C61.7836 63.6581 60.5004 65.1983 59.718 67.001C58.0365 70.5183 55.3799 73.4784 52.0642 75.5291C48.7486 77.5798 44.9135 78.6347 41.0155 78.5682Z" fill="#38BCEA"/>
<path d="M11.4473 35.5507C10.1667 35.549 8.92599 35.1054 7.93463 34.2949C6.94327 33.4843 6.262 32.3565 6.0059 31.1018L0.0341222 1.51663C-0.0057378 1.35201 -0.010738 1.18087 0.0194487 1.0142C0.0496354 0.847538 0.114329 0.689026 0.209396 0.548843C0.304462 0.408661 0.427809 0.289906 0.571483 0.200202C0.715156 0.110498 0.875986 0.0518278 1.04367 0.0279575C1.2045 -0.0069005 1.37067 -0.00918629 1.53239 0.0212351C1.69411 0.0516565 1.84812 0.114168 1.98529 0.205081C2.12245 0.295994 2.24001 0.413464 2.33103 0.550559C2.42205 0.687654 2.48468 0.841594 2.51523 1.00329L8.48703 30.5714C8.64809 31.3643 9.11637 32.0614 9.78964 32.5102C10.4629 32.959 11.2864 33.1232 12.0804 32.9669C12.8779 32.7998 13.5782 32.3268 14.031 31.6494C14.4746 30.9731 14.6344 30.1495 14.4759 29.3565L10.7115 10.962C10.67 10.6469 10.7501 10.3279 10.9356 10.0698C11.1211 9.81179 11.398 9.63415 11.7099 9.57308C12.0217 9.51202 12.3452 9.57211 12.6143 9.74114C12.8834 9.91017 13.078 10.1754 13.1584 10.4829L16.8886 28.9116C17.0329 29.6245 17.0347 30.3591 16.8937 31.0727C16.7528 31.7864 16.4719 32.465 16.0673 33.0696C15.2511 34.2954 13.9845 35.15 12.5424 35.448C12.1813 35.5161 11.8147 35.5504 11.4473 35.5507Z" fill="#38BCEA"/>
<path d="M25.1022 59.0102C24.9492 59.0346 24.7932 59.0346 24.6402 59.0102L11.0882 53.5175C10.929 53.453 10.7848 53.3563 10.6647 53.2334C10.5446 53.1106 10.4511 52.9643 10.3901 52.8037C10.329 52.6431 10.3018 52.4717 10.31 52.3001C10.3183 52.1285 10.3618 51.9604 10.438 51.8064L13.3297 45.6635L11.0711 34.5242C11.0055 34.1997 11.0714 33.8625 11.2542 33.5866C11.4371 33.3107 11.722 33.1186 12.0464 33.0526C12.2072 33.0178 12.3734 33.0155 12.5351 33.0459C12.6969 33.0763 12.8508 33.1388 12.988 33.2297C13.1252 33.3207 13.2427 33.4381 13.3338 33.5752C13.4248 33.7123 13.4874 33.8663 13.518 34.028L15.8622 45.5609C15.9158 45.8274 15.8797 46.1041 15.7595 46.348L13.2613 51.6695L25.5642 56.666C25.7279 56.7254 25.8774 56.8184 26.003 56.939C26.1286 57.0596 26.2277 57.2052 26.2937 57.3663C26.3598 57.5274 26.3914 57.7006 26.3866 57.8747C26.3818 58.0487 26.3406 58.2199 26.2658 58.3771C26.1492 58.5798 25.9788 58.7462 25.7734 58.858C25.568 58.9697 25.3357 59.0224 25.1022 59.0102Z" fill="#38BCEA"/>
<path d="M39.6115 33.4804C39.3604 33.4833 39.1145 33.4096 38.9065 33.2689C38.6986 33.1282 38.5386 32.9274 38.4479 32.6932L37.0619 29.117C36.9585 28.8353 36.9585 28.526 37.0619 28.2443L38.2939 24.8221L35.7273 19.261C35.6407 19.1107 35.5864 18.944 35.5678 18.7715C35.5491 18.599 35.5667 18.4246 35.6192 18.2593C35.6717 18.0939 35.7581 17.9414 35.8729 17.8113C35.9876 17.6812 36.1282 17.5764 36.2857 17.5036C36.4431 17.4309 36.614 17.3917 36.7875 17.3886C36.9609 17.3855 37.1331 17.4186 37.293 17.4857C37.453 17.5529 37.5972 17.6526 37.7165 17.7785C37.8358 17.9045 37.9275 18.0539 37.9859 18.2172L40.775 24.2232C40.8942 24.5256 40.8942 24.8619 40.775 25.1643L39.5259 28.6892L40.7579 31.7521C40.8721 32.0613 40.863 32.4026 40.7324 32.7053C40.6017 33.0079 40.3597 33.2487 40.0564 33.3777C39.9143 33.4348 39.7642 33.4695 39.6115 33.4804Z" fill="#38BCEA"/>
<path d="M42.6586 26.978C42.5336 26.9947 42.407 26.9947 42.2821 26.978L39.2363 26.0197C38.9203 25.9175 38.6571 25.6952 38.5035 25.4007C38.3498 25.1062 38.3181 24.7632 38.415 24.4455C38.4634 24.288 38.543 24.1417 38.649 24.0155C38.755 23.8892 38.8852 23.7856 39.032 23.7106C39.1788 23.6356 39.3392 23.5908 39.5036 23.5789C39.668 23.567 39.8331 23.5882 39.9892 23.6413L43.035 24.5995C43.3119 24.6949 43.5466 24.8846 43.6979 25.1354C43.8492 25.3863 43.9075 25.6823 43.8626 25.9718C43.8178 26.2613 43.6726 26.5258 43.4525 26.7191C43.2324 26.9124 42.9514 27.0222 42.6586 27.0293V26.978Z" fill="#38BCEA"/>
</svg>
