<svg width="59" height="76" viewBox="0 0 59 76" fill="none" xmlns="http://www.w3.org/2000/svg">
<path d="M36.4632 9.48301H36.1308C33.3249 8.74145 30.7192 7.38477 28.5026 5.51139C28.2544 5.27938 28.1084 4.95825 28.0969 4.61865C28.0854 4.27905 28.2094 3.94886 28.4414 3.70061C28.6734 3.45235 28.9945 3.30641 29.3341 3.29492C29.6737 3.28344 30.004 3.40735 30.2522 3.63936C32.1577 5.23362 34.3922 6.38671 36.7957 7.01607C37.0879 7.10224 37.3396 7.28998 37.5055 7.54546C37.6715 7.80095 37.7406 8.10734 37.7005 8.40932C37.6604 8.7113 37.5136 8.98898 37.2867 9.19228C37.0599 9.39558 36.7678 9.5111 36.4632 9.51798V9.48301Z" fill="#38BCEA"/>
<path d="M39.5073 45.0346H19.1945C16.1792 45.0202 13.2691 43.9246 10.9929 41.9469C8.71667 39.9693 7.22537 37.2408 6.78986 34.2571L4.83032 20.5053C4.34233 17.3236 4.65499 14.0704 5.74009 11.0399C6.77952 7.90192 8.75891 5.15954 11.4098 3.18465C14.0608 1.20976 17.2549 0.0979345 20.5592 0C23.7121 0.016184 26.7773 1.03998 29.3071 2.92185C31.8352 1.03667 34.9016 0.0124975 38.0551 0C41.3831 0.0851848 44.603 1.19904 47.2722 3.18844C49.9415 5.17784 51.929 7.94512 52.9617 11.1099C54.0468 14.1404 54.3595 17.3936 53.8715 20.5753L51.9119 34.327C51.4612 37.298 49.9633 40.01 47.6886 41.9735C45.4139 43.937 42.5122 45.0227 39.5073 45.0346ZM20.6117 2.55439C17.8277 2.65672 15.1422 3.61081 12.9177 5.28782C10.6931 6.96482 9.03672 9.284 8.17206 11.9323C7.24308 14.5684 6.9845 17.3944 7.41969 20.1554L9.36177 33.9072C9.71301 36.2817 10.9031 38.4519 12.7165 40.0246C14.5299 41.5972 16.8466 42.4684 19.247 42.4802H39.5073C41.9076 42.4684 44.2244 41.5972 46.0378 40.0246C47.8512 38.4519 49.0413 36.2817 49.3925 33.9072L51.3345 20.1554C51.7697 17.3944 51.5112 14.5684 50.5822 11.9323C49.7165 9.28128 48.0575 6.96015 45.8295 5.2829C43.6015 3.60566 40.9121 2.6532 38.1251 2.55439C35.2137 2.57224 32.4038 3.62673 30.1995 5.52873C29.9664 5.71616 29.6762 5.81833 29.3771 5.81833C29.078 5.81833 28.7879 5.71616 28.5548 5.52873C26.3459 3.62283 23.5291 2.56808 20.6117 2.55439Z" fill="#38BCEA"/>
<path d="M29.3769 75.5476C29.0899 75.5476 28.8112 75.4509 28.5858 75.2732C28.3604 75.0954 28.2015 74.8469 28.1346 74.5678C28.0605 74.2386 28.1177 73.8936 28.2942 73.606C28.4706 73.3184 28.7524 73.1111 29.0794 73.0282L30.2167 72.7657L19.1942 72.3458C18.8848 72.3345 18.59 72.2112 18.3647 71.9988C18.1394 71.7863 17.999 71.4993 17.9695 71.1911C17.9474 70.8849 18.0334 70.5807 18.2124 70.3314C18.3914 70.0821 18.6521 69.9034 18.9493 69.8264L30.2167 67.097L19.2117 66.6421C18.9035 66.6272 18.6107 66.5027 18.3861 66.2909C18.1616 66.0792 18.02 65.7942 17.987 65.4874C17.9577 65.1799 18.0408 64.8722 18.2209 64.6213C18.4011 64.3704 18.6661 64.1932 18.9668 64.1227L30.1992 61.4633L19.1942 61.0084C18.8958 60.9843 18.6153 60.856 18.4018 60.6461C18.1883 60.4361 18.0553 60.1578 18.0261 59.8598C17.997 59.5618 18.0734 59.263 18.2422 59.0157C18.4109 58.7683 18.6612 58.5881 18.9493 58.5065L30.1992 55.8471L19.1942 55.3922C18.8854 55.3806 18.5913 55.2573 18.3664 55.0454C18.1415 54.8334 18.0011 54.5471 17.9711 54.2395C17.9412 53.9319 18.0239 53.6239 18.2038 53.3726C18.3836 53.1213 18.6485 52.9437 18.9493 52.8728L30.1817 50.2134L19.1767 49.7585C18.8591 49.7633 18.5514 49.648 18.3153 49.4356C18.0791 49.2231 17.9319 48.9294 17.9031 48.613C17.8744 48.2967 17.9662 47.9812 18.1602 47.7296C18.3542 47.4781 18.636 47.3092 18.9493 47.2566L39.2096 42.6027C39.3763 42.5543 39.5511 42.5404 39.7234 42.5617C39.8956 42.5831 40.0617 42.6394 40.2114 42.7271C40.3612 42.8148 40.4915 42.9322 40.5944 43.072C40.6973 43.2117 40.7707 43.371 40.81 43.5401C40.8493 43.7091 40.8537 43.8844 40.8229 44.0553C40.7922 44.2261 40.727 44.3889 40.6313 44.5337C40.5355 44.6785 40.4113 44.8022 40.2661 44.8973C40.1209 44.9925 39.9579 45.0571 39.7869 45.0871L28.5546 47.7465L39.5595 48.2014C39.8674 48.2085 40.162 48.3282 40.3876 48.5377C40.6133 48.7472 40.7544 49.0322 40.7842 49.3386C40.8136 49.6461 40.7305 49.9538 40.5503 50.2047C40.3702 50.4557 40.1052 50.6328 39.8045 50.7033L28.572 53.3627L39.577 53.8176C39.8846 53.8328 40.1764 53.9586 40.3986 54.1719C40.6208 54.3852 40.7585 54.6717 40.7862 54.9784C40.8138 55.2852 40.7297 55.5916 40.5494 55.8413C40.369 56.0909 40.1044 56.267 39.8045 56.337L28.572 58.9964L39.577 59.4338C39.8841 59.4521 40.1751 59.5778 40.3989 59.7889C40.6228 60 40.7654 60.283 40.8017 60.5885C40.8311 60.896 40.7479 61.2037 40.5678 61.4546C40.3876 61.7055 40.1227 61.8827 39.822 61.9532L28.572 64.6126L39.577 65.0675C39.8858 65.0791 40.18 65.2024 40.4049 65.4143C40.6298 65.6263 40.7702 65.9126 40.8001 66.2202C40.83 66.5278 40.7474 66.8358 40.5675 67.0871C40.3877 67.3384 40.1228 67.516 39.822 67.5869L28.5896 70.2288L39.5945 70.6837C39.9009 70.6991 40.1914 70.8243 40.4131 71.0363C40.6348 71.2484 40.7727 71.5331 40.8017 71.8384C40.8356 72.1441 40.7565 72.4517 40.5792 72.7031C40.4019 72.9545 40.1388 73.1323 39.8394 73.2031L29.6918 75.5126C29.5897 75.5426 29.4831 75.5544 29.3769 75.5476Z" fill="#38BCEA"/>
<path d="M47.9929 67.937C47.7869 67.9393 47.5835 67.891 47.4005 67.7965C47.2175 67.7019 47.0604 67.5639 46.9431 67.3946C46.7581 67.1192 46.6875 66.7825 46.7463 66.456C46.8051 66.1294 46.9886 65.8386 47.2581 65.645L56.6709 59.189C56.8099 59.0936 56.9663 59.0266 57.1312 58.9917C57.2962 58.9568 57.4664 58.9547 57.6321 58.9856C57.7978 59.0164 57.9558 59.0796 58.0971 59.1716C58.2384 59.2635 58.3602 59.3824 58.4555 59.5214C58.5509 59.6604 58.6179 59.8168 58.6528 59.9817C58.6877 60.1466 58.6898 60.3168 58.6589 60.4825C58.628 60.6483 58.5648 60.8063 58.4729 60.9476C58.3809 61.0888 58.2621 61.2106 58.1231 61.306L48.7103 67.7445C48.4964 67.8803 48.2461 67.9475 47.9929 67.937Z" fill="#38BCEA"/>
<path d="M48.0981 53.7477C47.8268 53.7456 47.5633 53.6571 47.3457 53.4951C47.128 53.3331 46.9677 53.1061 46.8878 52.8468C46.8078 52.5876 46.8125 52.3096 46.9012 52.0532C46.9898 51.7968 47.1578 51.5753 47.3808 51.4208L56.7936 44.9648C56.9303 44.8509 57.0894 44.7668 57.2605 44.718C57.4316 44.6692 57.611 44.6566 57.7873 44.6812C57.9635 44.7057 58.1327 44.7668 58.2839 44.8606C58.4352 44.9543 58.5652 45.0786 58.6656 45.2256C58.766 45.3725 58.8346 45.5388 58.8669 45.7137C58.8993 45.8887 58.8948 46.0685 58.8536 46.2416C58.8124 46.4148 58.7355 46.5774 58.6278 46.719C58.5202 46.8607 58.3841 46.9783 58.2283 47.0643L48.833 53.5203C48.6177 53.6709 48.3608 53.7504 48.0981 53.7477Z" fill="#38BCEA"/>
<path d="M10.7789 67.9369C10.522 67.9371 10.2714 67.8576 10.0616 67.7095L0.666251 61.2534C0.39025 61.0654 0.200205 60.7756 0.13787 60.4475C0.0755351 60.1194 0.146008 59.78 0.333824 59.5039C0.524772 59.2316 0.814405 59.0445 1.14113 58.9824C1.46786 58.9203 1.80591 58.9881 2.08342 59.1714L11.4963 65.6274C11.765 65.8212 11.9492 66.1105 12.0111 66.436C12.0729 66.7614 12.0076 67.0982 11.8287 67.377C11.7102 67.5465 11.5533 67.6855 11.3709 67.7828C11.1885 67.8801 10.9856 67.9329 10.7789 67.9369Z" fill="#38BCEA"/>
<path d="M10.6741 53.7478C10.4168 53.7503 10.1655 53.6706 9.95673 53.5203L0.543894 47.0643C0.271601 46.8733 0.0845317 46.5837 0.0224535 46.257C-0.0396247 45.9302 0.0281801 45.5922 0.211466 45.3147C0.399469 45.0387 0.689361 44.8486 1.01744 44.7863C1.34552 44.724 1.68493 44.7944 1.96106 44.9823L11.3739 51.4383C11.5969 51.5928 11.7649 51.8143 11.8535 52.0707C11.9422 52.3271 11.9469 52.6051 11.867 52.8644C11.7871 53.1236 11.6267 53.3507 11.409 53.5127C11.1914 53.6746 10.9278 53.7631 10.6566 53.7653L10.6741 53.7478Z" fill="#38BCEA"/>
</svg>
